<?xml version="1.0" standalone="no"?>
<!DOCTYPE svg PUBLIC "-//W3C//DTD SVG 1.1//EN" "http://www.w3.org/Graphics/SVG/1.1/DTD/svg11.dtd" >
<svg xmlns="http://www.w3.org/2000/svg">
<metadata></metadata>
<defs>
<font id="clarendonno1urwtceextbolRg" horiz-adv-x="1024" vert-adv-y="2048" >
<font-face units-per-em="2048" ascent="1547" descent="-501" />
<missing-glyph horiz-adv-x="512" />
<glyph horiz-adv-x="2048" vert-adv-y="0" />
<glyph horiz-adv-x="2048" vert-adv-y="0" />
<glyph unicode="&#xd;" horiz-adv-x="2048" vert-adv-y="0" />
<glyph unicode=" " horiz-adv-x="512" vert-adv-y="2458" />
<glyph unicode="!" horiz-adv-x="636" vert-adv-y="2458" d="M123 1138q0 120 60 188q51 60 138 60q88 0 141 -64q52 -61 52 -184q0 -73 -13 -134l-39 -192q-39 -187 -62 -398h-191l-4 42q-18 189 -30 273q-6 40 -39 257q-13 85 -13 152zM137 149q0 72 55 123q48 43 115 43q71 0 121 -55q43 -48 43 -112q0 -74 -55 -124 q-48 -43 -112 -43q-74 0 -124 55q-43 48 -43 113z" />
<glyph unicode="&#x22;" horiz-adv-x="772" vert-adv-y="2458" d="M84 1365h237l-49 -549h-139zM452 1365h236l-49 -549h-139z" />
<glyph unicode="#" horiz-adv-x="1229" vert-adv-y="2458" d="M112 433l28 177h208l28 174h-207l28 176h207l64 405h177l-64 -405h176l64 405h180l-64 -405h205l-28 -176h-205l-27 -174h208l-28 -177h-208l-69 -433h-180l69 433h-177l-68 -433h-177l68 433h-208zM525 610h177l27 174h-176z" />
<glyph unicode="$" horiz-adv-x="1283" vert-adv-y="2458" d="M74 310q0 76 54 124q48 43 114 43q70 0 116 -44q40 -37 40 -92q0 -65 -58 -98q-30 -17 -80 -18q134 -103 389 -103q138 0 209 38q42 23 69 64q24 39 24 82q0 64 -63 98q-55 29 -233 52q-177 23 -249 42q-163 43 -239 120q-88 89 -88 243q0 119 71 215q89 121 273 166 q52 13 161 24v113h151v-113q159 -9 231 -34q134 -47 191 -145q33 -56 33 -117q0 -84 -53 -137q-43 -42 -114 -42q-73 0 -117 44q-35 35 -35 89q0 55 35 87q26 24 67 24q20 0 56 -10q-57 53 -128 71q-104 27 -217 27q-145 0 -223 -50q-35 -23 -57 -65q-17 -32 -17 -65 q0 -90 129 -121q47 -11 259 -41q225 -32 340 -112q134 -93 134 -286q0 -149 -83 -241q-108 -121 -286 -157q-51 -10 -145 -14v-207h-151v207q-125 12 -194 31q-179 49 -262 159q-54 72 -54 149z" />
<glyph unicode="%" horiz-adv-x="1806" vert-adv-y="2458" d="M76 939q0 164 118 254q82 62 214 62q148 0 240 -91q89 -87 89 -226q0 -104 -62 -190q-83 -116 -267 -116q-153 0 -238 76q-94 85 -94 231zM252 83l1013 1157l94 -83l-1017 -1157zM307 923q0 -187 100 -187q99 0 99 203q0 74 -10 121q-18 83 -87 83q-102 0 -102 -220z M868 292q0 164 118 254q82 62 214 62q148 0 240 -91q89 -87 89 -226q0 -103 -62 -189q-84 -116 -267 -116q-153 0 -238 76q-94 85 -94 230zM1100 275q0 -187 100 -187q99 0 99 204q0 75 -10 121q-18 83 -87 83q-102 0 -102 -221z" />
<glyph unicode="&#x26;" horiz-adv-x="1624" vert-adv-y="2458" d="M44 398q0 173 134 293q55 50 180 103q-60 124 -60 215q0 99 57 183q52 77 138 117q71 33 151 33q150 0 239 -104q72 -83 72 -188q0 -115 -96 -220q-31 -35 -105 -94q86 -146 237 -324q58 77 72 98q35 52 35 80q0 44 -77 44h-89v180h570v-180h-66q-69 0 -99 -20 q-25 -17 -53 -63l-71 -117q-30 -49 -107 -154q92 -103 176 -103q52 0 82 43q38 54 38 161q0 31 -4 96h180q1 -60 1 -93q0 -149 -46 -241q-41 -81 -127 -123q-82 -39 -180 -39q-181 0 -330 107q-162 -107 -370 -107q-200 0 -329 105q-82 66 -122 160q-31 74 -31 152zM348 425 q0 -115 86 -193q75 -68 177 -68q73 0 155 52q-115 130 -177 218q-12 16 -103 156q-10 15 -29 44q-43 -43 -62 -68q-47 -62 -47 -141zM578 1066q0 -47 37 -112q8 -14 40 -66l20 14q98 68 98 156q0 39 -22 65q-30 36 -78 36q-44 0 -73 -31q-22 -23 -22 -62z" />
<glyph unicode="'" horiz-adv-x="405" vert-adv-y="2458" d="M84 1365h237l-49 -549h-139z" />
<glyph unicode="(" horiz-adv-x="857" vert-adv-y="2458" d="M71 470q0 416 186 648q210 262 567 273v-191q-125 -3 -203 -80q-91 -91 -123 -270q-26 -143 -26 -411q0 -283 43 -419q78 -244 287 -257v-190q-237 11 -408 133q-162 116 -240 288q-83 184 -83 476z" />
<glyph unicode=")" horiz-adv-x="859" vert-adv-y="2458" d="M33 -236q126 2 204 80q91 91 123 269q26 144 26 412q0 283 -43 419q-78 244 -287 257v190q237 -12 408 -134q162 -115 240 -287q83 -184 83 -476q0 -416 -186 -648q-211 -263 -568 -273v191z" />
<glyph unicode="*" vert-adv-y="2458" d="M128 1085q0 59 45 109q45 48 98 48q61 0 96 -72q24 -49 33 -57q14 -11 26 -11q15 0 25 17q6 9 6 14q0 25 -42 65q-43 40 -43 79q0 56 52 94q43 30 106 30q61 0 100 -34q35 -31 35 -73q0 -56 -43 -100q-45 -47 -45 -65q0 -8 11 -20q12 -11 23 -11t26 13q5 5 28 51 q17 34 49 55q27 17 54 17q36 0 63 -24t45 -67q17 -41 17 -82q0 -56 -40 -91q-29 -26 -73 -26q-19 0 -80 33q-15 8 -26 8q-9 0 -22 -8q-4 -3 -10 -13t-6 -15q0 -4 8 -17q11 -15 44 -20q53 -9 67 -13t27 -16q37 -31 37 -76q0 -61 -52 -111q-51 -49 -116 -49q-55 0 -86 48 q-21 33 -20 45l8 93q1 9 -15 23q-10 9 -18 9q-18 0 -28 -15q-11 -18 -11 -31l2 -8l5 -38q3 -19 3 -28q0 -27 -23 -56q-34 -43 -89 -43q-68 0 -121 50q-48 45 -48 101q0 51 44 85q16 12 76 26q36 9 49 28q7 11 7 16q0 10 -9 21q-12 13 -28 13q-7 0 -61 -26q-29 -14 -52 -14 q-30 0 -57 23q-51 44 -51 116z" />
<glyph unicode="+" vert-adv-y="2458" d="M14 576v242h374v356h248v-356h375v-242h-375v-356h-248v356h-374z" />
<glyph unicode="," horiz-adv-x="506" vert-adv-y="2458" d="M63 133q0 83 63 134q51 42 121 42q92 0 154 -68q53 -59 53 -152q0 -118 -76 -217q-75 -97 -189 -130q-36 -10 -104 -15v117q83 18 127 56q42 34 58 100q-41 -19 -73 -19q-56 0 -94 41q-40 44 -40 111z" />
<glyph unicode="-" horiz-adv-x="532" vert-adv-y="2458" d="M0 369v244h532v-244h-532z" />
<glyph unicode="." horiz-adv-x="490" vert-adv-y="2458" d="M79 149q0 71 55 122q47 43 114 43q71 0 121 -55q43 -48 43 -111q0 -74 -55 -124q-48 -43 -112 -43q-73 0 -123 55q-43 48 -43 113z" />
<glyph unicode="/" horiz-adv-x="801" vert-adv-y="2458" d="M-42 -422l544 1787h214l-540 -1787h-218z" />
<glyph unicode="0" horiz-adv-x="1283" vert-adv-y="2458" d="M37 619q0 222 104 387q96 153 270 219q109 42 240 42q224 0 379 -135q215 -187 215 -529q0 -283 -185 -464q-171 -169 -417 -169q-231 0 -395 139q-93 80 -144 191q-67 148 -67 319zM431 581q0 -197 39 -307q48 -135 170 -135q106 0 159 110q53 107 53 403q0 260 -66 369 q-46 77 -137 77q-119 0 -169 -131q-49 -130 -49 -386z" />
<glyph unicode="1" horiz-adv-x="1283" vert-adv-y="2458" d="M306 0v187h102q71 0 88 25q13 18 16 61q0 11 2 106v521h-208v179q127 7 191 41q74 40 99 118h288v-859q2 -115 6 -138q5 -36 32 -46q22 -8 67 -8h80v-187h-763z" />
<glyph unicode="2" horiz-adv-x="1283" vert-adv-y="2458" d="M77 0q1 141 24 215q39 131 159 233q81 68 210 138q186 101 226 144q59 62 59 152q0 92 -61 143q-60 51 -175 51q-103 0 -172 -57q-47 -38 -68 -96q56 34 97 34q73 0 105 -59q16 -30 16 -72q0 -63 -30 -109q-23 -33 -64 -56q-47 -25 -98 -25q-94 0 -154 73q-52 63 -52 162 q0 166 137 277q79 64 206 96q91 23 187 23q169 0 314 -67q122 -57 182 -171q38 -71 38 -161q0 -171 -134 -284q-90 -76 -292 -129q-229 -61 -291 -94q-59 -31 -123 -115q64 43 116 59q51 15 114 15q70 0 251 -40q56 -12 98 -12q60 0 86 42q25 39 27 126h182 q-1 -197 -34 -277q-41 -98 -131 -147q-79 -42 -182 -42q-74 0 -136 18q-68 19 -162 58q-123 51 -184 51q-40 0 -63 -19q-25 -20 -26 -78h-202z" />
<glyph unicode="3" horiz-adv-x="1283" vert-adv-y="2458" d="M84 319q0 105 73 166q53 46 128 46q94 0 146 -63q37 -46 37 -110q0 -88 -66 -130q-30 -19 -65 -19q-11 0 -31 2q35 -35 71 -49q62 -23 140 -23q129 0 202 64q72 63 72 159q0 75 -47 130q-66 76 -236 76h-14v170h40q68 0 118 22q101 45 101 160q0 75 -56 122 q-65 56 -183 56q-94 0 -153 -36q-26 -16 -55 -52q38 9 56 9q51 0 86 -39q32 -34 32 -89q0 -74 -55 -124q-52 -46 -122 -46q-80 0 -135 60q-52 59 -52 142q0 93 62 174q129 170 465 170q271 0 409 -108q109 -86 109 -222q0 -122 -96 -193q-61 -45 -174 -77q117 -25 188 -74 q129 -90 129 -240q0 -180 -176 -291q-146 -93 -375 -93q-171 0 -329 60q-127 49 -197 141q-47 61 -47 149z" />
<glyph unicode="4" horiz-adv-x="1283" vert-adv-y="2458" d="M58 355v188l640 695h325v-695h205v-188h-205q1 -41 2 -61q1 -76 27 -94q18 -13 77 -13h99v-187h-790v187h110q72 0 89 24q12 19 15 62q0 6 1 46q0 18 1 36h-596zM306 543h348v366z" />
<glyph unicode="5" horiz-adv-x="1283" vert-adv-y="2458" d="M126 344q0 93 59 144q52 47 131 47q89 0 142 -57q43 -46 43 -109q0 -87 -70 -127q-27 -16 -81 -22q71 -63 175 -63q113 0 182 76q74 81 74 216q0 125 -65 193q-59 62 -155 62q-110 0 -175 -83h-183l40 634q199 -47 483 -47q189 0 416 30q1 -12 1 -20q0 -57 -56 -114 q-85 -87 -283 -121q-95 -17 -193 -17q-93 0 -200 19l-9 -184q62 41 96 55q69 30 183 30q235 0 384 -142q134 -128 134 -309q0 -134 -80 -248q-73 -103 -181 -153q-140 -64 -308 -64q-143 0 -270 53q-119 51 -188 161q-46 72 -46 160z" />
<glyph unicode="6" horiz-adv-x="1283" vert-adv-y="2458" d="M97 614q0 317 162 481q92 94 240 139q111 34 230 34q212 0 329 -93q97 -77 97 -179q0 -79 -56 -136q-53 -52 -132 -52q-70 0 -118 42q-49 43 -49 112q0 107 106 126q-62 30 -125 30q-201 0 -270 -194q-27 -76 -34 -274q54 55 101 78q83 39 194 39q172 0 293 -91 q82 -63 121 -156q29 -70 29 -145q0 -177 -140 -293q-75 -61 -198 -92q-88 -21 -182 -21q-274 0 -428 150q-170 166 -170 495zM500 363q0 -115 57 -177q43 -47 115 -47q100 0 146 79q35 59 35 151q0 130 -61 187q-45 42 -109 42q-91 0 -139 -69q-44 -63 -44 -166z" />
<glyph unicode="7" horiz-adv-x="1283" vert-adv-y="2458" d="M163 647v571l193 2v-140q103 164 281 164q69 0 121 -18l140 -50q72 -25 109 -25q28 0 44 12q24 18 36 75h166q-7 -103 -42 -191q-40 -100 -96 -187l-124 -192q-107 -168 -141 -380q-14 -91 -24 -288h-382q12 229 39 330q35 129 119 241q56 73 165 179q90 87 121 121 t89 108q-101 -53 -171 -53q-51 0 -121 12q-120 21 -160 21q-84 0 -125 -49q-44 -52 -44 -170v-93h-193z" />
<glyph unicode="8" horiz-adv-x="1283" vert-adv-y="2458" d="M57 328q0 134 121 214q48 32 154 61q-86 50 -126 93q-86 93 -86 206q0 164 163 271q75 49 202 75q93 19 184 19q164 0 298 -53q114 -45 172 -151q26 -48 26 -108q0 -118 -96 -187q-41 -30 -138 -59q161 -60 222 -131q72 -86 72 -204q0 -189 -160 -301q-77 -54 -215 -82 q-102 -21 -212 -21q-281 0 -436 108q-145 102 -145 250zM319 340q0 -69 48 -115q100 -94 277 -94q152 0 226 73q32 32 32 79q0 55 -47 92q-39 31 -137 65l-255 88q-65 -45 -89 -68q-55 -52 -55 -120zM442 963q0 -28 13 -45q21 -28 62 -46q39 -17 91 -36l175 -62 q131 72 131 170q0 70 -70 114q-63 40 -178 40q-154 0 -203 -70q-21 -30 -21 -65z" />
<glyph unicode="9" horiz-adv-x="1283" vert-adv-y="2458" d="M94 864q0 196 172 314q131 89 344 89q291 0 442 -165q156 -169 156 -485q0 -335 -196 -504q-166 -143 -432 -143q-140 0 -258 46q-90 35 -141 112q-33 51 -33 119q0 97 69 151q47 36 115 36q86 0 131 -50q38 -42 38 -102q0 -56 -32 -89q-20 -20 -70 -33q60 -34 123 -34 q118 0 199 79q78 76 98 245q6 54 8 147q-45 -56 -92 -80q-82 -41 -196 -41q-182 0 -306 100q-139 112 -139 288zM454 868q0 -130 67 -186q44 -37 106 -37q96 0 144 70q37 54 37 159q0 232 -168 232q-93 0 -145 -74q-41 -61 -41 -164z" />
<glyph unicode=":" horiz-adv-x="490" vert-adv-y="2458" d="M79 149q0 71 55 122q47 43 114 43q71 0 121 -55q43 -48 43 -111q0 -74 -55 -124q-48 -43 -112 -43q-73 0 -123 55q-43 48 -43 113zM79 763q0 71 55 122q47 43 114 43q71 0 121 -55q43 -48 43 -111q0 -74 -55 -124q-48 -43 -112 -43q-73 0 -123 55q-43 48 -43 113z" />
<glyph unicode=";" horiz-adv-x="506" vert-adv-y="2458" d="M63 133q0 83 63 134q51 42 121 42q92 0 154 -68q53 -59 53 -152q0 -118 -76 -217q-75 -97 -189 -130q-36 -10 -104 -15v117q83 18 127 56q42 34 58 100q-41 -19 -73 -19q-56 0 -94 41q-40 44 -40 111zM66 763q0 71 55 122q47 43 114 43q71 0 121 -55q43 -48 43 -111 q0 -74 -55 -124q-48 -43 -112 -43q-73 0 -123 55q-43 48 -43 113z" />
<glyph unicode="&#x3c;" vert-adv-y="2458" d="M54 600v197l913 461v-223l-653 -339l653 -331v-222z" />
<glyph unicode="=" vert-adv-y="2458" d="M14 406v228h997v-228h-997zM14 759v228h997v-228h-997z" />
<glyph unicode="&#x3e;" vert-adv-y="2458" d="M59 143v222l645 331l-645 339v223l902 -461v-197z" />
<glyph unicode="?" horiz-adv-x="1074" vert-adv-y="2458" d="M54 983q0 160 126 277q73 68 191 101q84 23 174 23q158 0 289 -68q107 -55 159 -168q30 -66 30 -142q0 -127 -72 -218q-51 -63 -140 -125q-126 -88 -156 -120q-61 -66 -66 -153h-199q1 106 26 169q25 64 112 178q53 70 88 131q35 62 35 122q0 80 -60 140q-62 61 -157 61 q-156 0 -215 -164q56 26 96 26q75 0 117 -55q34 -46 34 -105q0 -76 -55 -130q-51 -48 -133 -48q-101 0 -161 77q-63 82 -63 191zM324 149q0 72 55 123q48 43 115 43q71 0 121 -55q43 -48 43 -112q0 -74 -55 -124q-48 -43 -112 -43q-74 0 -124 55q-43 48 -43 113z" />
<glyph unicode="@" horiz-adv-x="1502" vert-adv-y="2458" d="M68 671q0 204 109 382q104 170 281 259q151 76 330 76q264 0 443 -154q103 -88 157 -215q46 -110 46 -232q0 -185 -97 -323q-64 -91 -148 -128q-48 -21 -91 -21q-72 0 -124 50q-26 24 -36 62q-31 -46 -75 -75q-85 -55 -178 -55q-122 0 -204 90q-85 93 -85 232 q0 168 118 298q102 111 240 111q82 0 148 -47q33 -23 51 -53l16 79l179 -1l-76 -389q-13 -69 -13 -89q0 -65 47 -65q49 0 95 67q76 110 76 258q0 198 -139 322q-133 117 -341 117q-235 0 -392 -159q-162 -165 -162 -400q0 -150 72 -279q76 -137 216 -202q104 -49 229 -49 q176 0 321 102l95 -133q-172 -130 -407 -130q-291 0 -485 182q-105 99 -162 239q-54 132 -54 273zM600 627q0 -58 29 -97q38 -50 104 -50q82 0 135 82q40 63 40 133q0 59 -30 99q-36 47 -100 47q-83 0 -137 -81q-41 -62 -41 -133z" />
<glyph unicode="A" horiz-adv-x="1506" vert-adv-y="2458" d="M-38 0v187h66q55 0 84 21q34 24 70 131l349 1026h472l319 -1026q33 -107 64 -131q27 -21 91 -21h68v-187h-779v187h81q62 0 77 8q21 12 21 39q0 18 -27 105l-35 105h-419l-35 -105q-27 -87 -27 -102q0 -50 95 -50h89v-187h-624zM520 620h308l-150 460z" />
<glyph unicode="B" horiz-adv-x="1574" vert-adv-y="2458" d="M68 0v187h115q71 0 89 25q12 17 15 61q0 11 2 106v608q-2 116 -5 137q-6 36 -33 46q-23 8 -68 8h-115v187h984q144 0 234 -50q156 -86 156 -272q0 -161 -128 -253q-60 -42 -171 -75q153 -22 230 -71q147 -92 147 -269q0 -142 -85 -239q-84 -95 -232 -122 q-81 -14 -297 -14h-838zM688 186h126q106 0 146 14q66 22 100 89q27 54 27 116q0 85 -48 146q-43 54 -125 65q-27 3 -109 3h-117v-433zM688 799h117q110 0 162 30q75 43 75 161q0 95 -54 143q-36 31 -82 39q-43 7 -98 7h-120v-380z" />
<glyph unicode="C" horiz-adv-x="1451" vert-adv-y="2458" d="M67 675q0 382 245 575q184 145 451 145q168 0 262 -54q46 -26 102 -88l30 112h208v-529h-208q-4 157 -62 244q-41 61 -112 92q-62 28 -134 28q-176 0 -263 -163q-69 -130 -69 -343q0 -225 65 -351q92 -178 272 -178q196 0 270 184q27 67 33 200h208q0 -152 -47 -262 q-79 -185 -259 -266q-114 -51 -301 -51q-262 0 -430 123q-119 86 -179 210q-82 169 -82 372z" />
<glyph unicode="D" horiz-adv-x="1708" vert-adv-y="2458" d="M68 0v187h115q71 0 89 24q12 18 15 62q0 11 2 105v608q-2 115 -6 138q-5 36 -32 46q-23 8 -68 8h-115v187h847q184 0 288 -32q202 -62 325 -234q112 -158 112 -403q0 -265 -129 -438q-136 -183 -383 -235q-113 -23 -266 -23h-794zM688 186h135q111 0 176 29 q111 50 159 189q31 88 31 282q0 214 -38 311q-51 132 -164 166q-55 16 -167 16h-132v-993z" />
<glyph unicode="E" horiz-adv-x="1577" vert-adv-y="2458" d="M68 0v187h115q71 0 89 25q12 17 15 61q0 11 2 106v608q-2 115 -5 137q-6 36 -33 46q-23 8 -68 8h-115v187h1406v-527h-214q-1 163 -62 253q-41 60 -120 80q-30 8 -119 8h-271v-387h70q110 0 143 85q13 32 14 129h180v-614h-180v42q0 101 -44 141q-39 36 -118 36h-65v-425 h227q140 0 178 11q70 21 118 98q34 58 44 167q2 25 5 98h214v-560h-1406z" />
<glyph unicode="F" horiz-adv-x="1464" vert-adv-y="2458" d="M68 0v187h115q71 0 89 24q12 18 15 62q0 11 2 105v609q-2 115 -6 137q-5 36 -32 46q-23 8 -68 8h-115v187h1401v-532h-213v26q0 137 -44 219q-38 70 -116 91q-40 10 -121 10h-287v-388h76q158 0 158 190v23h180v-622h-180q0 74 -4 101q-15 125 -153 125h-77v-230 q2 -116 5 -137q6 -36 33 -46q23 -8 68 -8h115v-187h-841z" />
<glyph unicode="G" horiz-adv-x="1612" vert-adv-y="2458" d="M67 679q0 206 91 380q103 200 317 285q128 51 286 51q185 0 286 -60q37 -22 79 -78l33 108h213v-520h-213q-9 105 -27 155q-68 200 -276 200q-164 0 -247 -128q-92 -143 -92 -405q0 -201 59 -314q63 -120 166 -165q52 -23 111 -23q97 0 137 47q31 36 31 107v5v15 q-3 116 -6 138q-6 36 -33 46q-23 8 -68 8h-86v186h746v-186h-62q-71 0 -89 -25q-12 -17 -15 -61q0 -11 -2 -106v-339h-181l-40 113q-119 -143 -391 -143q-291 0 -470 137q-125 95 -189 241q-68 155 -68 331z" />
<glyph unicode="H" horiz-adv-x="1828" vert-adv-y="2458" d="M68 0v187h115q71 0 88 24q13 18 16 62q0 11 2 105v608q-2 116 -6 138q-5 36 -32 46q-23 8 -68 8h-115v187h796v-187h-70q-71 0 -89 -25q-12 -17 -15 -61q0 -11 -2 -106v-185h451v185q-2 115 -5 138q-6 36 -33 46q-23 8 -68 8h-69v187h796v-187h-115q-72 0 -89 -25 q-13 -17 -15 -61q-1 -11 -3 -106v-608q2 -115 6 -137q5 -36 33 -46q22 -8 68 -8h115v-187h-796v187h69q71 0 89 24q12 18 15 62q0 11 2 105v237h-451v-237q2 -115 5 -137q6 -36 33 -46q22 -8 68 -8h70v-187h-796z" />
<glyph unicode="I" horiz-adv-x="971" vert-adv-y="2458" d="M67 0v187h115q71 0 89 24q12 18 15 62q0 11 2 105v608q-2 115 -6 138q-5 36 -32 46q-23 8 -68 8h-115v187h834v-187h-115q-71 0 -88 -25q-13 -17 -16 -61q0 -11 -2 -106v-608q2 -116 5 -137q6 -36 33 -46q23 -8 68 -8h115v-187h-834z" />
<glyph unicode="J" horiz-adv-x="1255" vert-adv-y="2458" d="M-14 345q0 123 74 193q63 60 150 60q85 0 140 -58q51 -54 51 -131q0 -81 -52 -126q-47 -39 -104 -39q-37 0 -86 26q31 -54 69 -75q54 -30 135 -30q143 0 195 80q35 54 35 224v517q-2 116 -6 138q-5 36 -32 46q-23 8 -68 8h-115v187h850v-187h-124q-71 0 -89 -25 q-12 -17 -15 -61q0 -11 -2 -106v-570q0 -122 -25 -193q-46 -130 -183 -200q-104 -53 -270 -53q-225 0 -366 85q-73 45 -117 121q-45 77 -45 169z" />
<glyph unicode="K" horiz-adv-x="1742" vert-adv-y="2458" d="M68 0v187h115q71 0 89 24q12 18 15 62q0 11 2 105v608q-2 115 -5 138q-6 36 -33 46q-23 8 -68 8h-115v187h796v-187h-70q-71 0 -89 -25q-12 -17 -15 -61q0 -11 -2 -106v-258l411 364q44 39 44 59q0 27 -52 27h-124v187h738v-188h-71q-71 0 -116 -26q-39 -23 -125 -98 l-216 -188l337 -559q45 -75 66 -94q27 -25 99 -25h70v-187h-783v187h78q45 0 58 10q12 8 12 25q0 18 -29 65l-201 325l-196 -181v-53q2 -115 5 -137q6 -36 33 -46q21 -8 68 -8h71v-187h-797z" />
<glyph unicode="L" horiz-adv-x="1381" vert-adv-y="2458" d="M68 0v187h115q71 0 89 24q12 18 15 62q0 11 2 105v608q-2 115 -6 138q-5 36 -32 46q-23 8 -68 8h-115v187h841v-187h-115q-71 0 -89 -25q-12 -17 -15 -61q0 -11 -2 -106v-800h244q91 0 135 25q80 46 111 169q15 59 18 178h206v-558h-1334z" />
<glyph unicode="M" horiz-adv-x="2161" vert-adv-y="2458" d="M68 0v187h115q71 0 89 24q12 18 15 62q0 11 2 105v608q-2 115 -5 138q-6 36 -33 46q-23 8 -68 8h-115v187h796l216 -828l217 828h796v-187h-115q-71 0 -89 -25q-12 -17 -15 -61q0 -11 -2 -106v-608q2 -115 5 -137q6 -36 33 -46q22 -8 68 -8h115v-187h-796v187h70 q71 0 89 24q12 18 15 62q0 11 2 105v766l-314 -1144h-321l-317 1144v-766q2 -115 6 -137q5 -36 32 -46q23 -8 68 -8h70v-187h-629z" />
<glyph unicode="N" horiz-adv-x="1768" vert-adv-y="2458" d="M68 0v187h115q71 0 89 24q12 18 15 62q0 11 2 105v608q-2 115 -5 138q-6 36 -33 46q-23 8 -68 8h-115v187h686l520 -944v565q-2 115 -5 138q-6 36 -33 46q-23 8 -68 8h-126v187h685v-187h-115q-71 0 -89 -25q-12 -17 -15 -61q0 -11 -2 -106v-986h-442l-543 994v-616 q2 -115 5 -137q6 -36 33 -46q23 -8 69 -8h127v-187h-687z" />
<glyph unicode="O" horiz-adv-x="1607" vert-adv-y="2458" d="M68 680q0 256 124 437q190 278 611 278q287 0 467 -123q136 -94 202 -250q67 -157 67 -348q0 -236 -111 -409q-114 -176 -329 -250q-130 -45 -286 -45q-306 0 -505 155q-112 87 -170 218q-70 156 -70 337zM519 672q0 -268 60 -383q73 -137 225 -137q171 0 237 162 q47 118 47 363q0 267 -59 384q-70 139 -218 139q-158 0 -229 -140q-63 -123 -63 -388z" />
<glyph unicode="P" horiz-adv-x="1476" vert-adv-y="2458" d="M68 0v187h115q71 0 89 24q12 18 15 62q0 11 2 105v608q-2 115 -5 138q-6 36 -33 46q-23 8 -68 8h-115v187h904q152 0 216 -13q165 -36 246 -146q64 -87 64 -212q0 -147 -85 -251q-87 -105 -231 -134q-65 -13 -224 -13h-270v-218q2 -115 6 -137q5 -36 32 -46q23 -8 68 -8 h115v-187h-841zM688 782h145q135 0 192 48q62 51 62 156q0 115 -79 160q-59 33 -179 33h-141v-397z" />
<glyph unicode="Q" horiz-adv-x="1712" vert-adv-y="2458" d="M68 678q0 284 147 466q203 251 593 251q320 0 502 -158q120 -104 179 -273q48 -139 48 -288q0 -245 -124 -439q54 -39 103 -39q33 0 56 26q28 33 28 90q0 16 -4 48h117q3 -73 3 -103q0 -173 -52 -253q-58 -88 -186 -88q-95 0 -184 54q-37 23 -99 78q-123 -46 -210 -63 t-199 -17q-276 0 -454 128q-113 81 -174 199q-90 172 -90 381zM518 683q0 -147 29 -311q9 85 28 130q24 58 76 93q63 43 143 43q140 0 283 -125q10 110 10 189q0 277 -72 392q-73 119 -208 119q-154 0 -224 -141q-65 -129 -65 -389zM625 305q0 -64 50 -109q49 -44 126 -44 q72 0 136 42q18 11 56 43l-22 22q-65 64 -126 111q-60 45 -115 45q-43 0 -71 -26q-34 -31 -34 -84z" />
<glyph unicode="R" horiz-adv-x="1652" vert-adv-y="2458" d="M68 0v187h115q71 0 89 24q12 18 15 62q0 11 2 105v608q-2 115 -6 138q-5 36 -32 46q-23 8 -68 8h-115v187h913q167 0 228 -14q146 -32 219 -138q55 -79 55 -177q0 -121 -77 -208q-59 -67 -154 -93q-34 -10 -106 -21q135 -20 188 -63q48 -38 64 -100q11 -45 11 -117v-142 q0 -82 19 -103q15 -16 38 -16q36 0 48 34q9 25 11 175h131q5 -72 5 -103q0 -141 -76 -221q-85 -88 -237 -88q-121 0 -205 52q-138 86 -138 352l2 134q0 75 -47 99q-27 13 -102 13h-170v-242q2 -115 5 -137q6 -36 33 -46q22 -8 68 -8h115v-187h-841zM688 796l140 -1 q100 0 137 10q58 17 86 70q25 49 25 114q0 118 -69 161q-48 29 -152 29h-167v-383z" />
<glyph unicode="S" horiz-adv-x="1414" vert-adv-y="2458" d="M82 0v528h207q20 -107 60 -164q80 -113 226 -166q90 -33 189 -33q119 0 177 53q44 40 44 97q0 81 -80 127q-47 26 -176 50q-208 39 -311 74q-194 66 -269 171q-66 93 -66 225q0 134 72 236q77 108 230 158q118 39 265 39q178 0 304 -55q57 -25 128 -84l38 109h183v-509 h-201q-19 152 -113 235q-110 97 -288 97q-98 0 -168 -33q-81 -39 -81 -117q0 -67 75 -103q49 -24 193 -50q232 -43 320 -76q319 -120 319 -406q0 -205 -150 -322q-88 -69 -196 -91q-95 -20 -205 -20q-197 0 -338 53q-65 24 -159 81l-39 -104h-190z" />
<glyph unicode="T" horiz-adv-x="1356" vert-adv-y="2458" d="M-12 833v532h1380v-532h-220q1 35 1 48q0 139 -52 214q-59 85 -177 85q-18 0 -43 -1v-800q2 -117 5 -138q6 -36 33 -46q22 -8 68 -8h115v-187h-849v187h115q71 0 88 25q13 18 16 61q0 11 2 106v800q-95 -1 -146 -31q-81 -48 -107 -160q-14 -59 -16 -155h-213z" />
<glyph unicode="U" horiz-adv-x="1652" vert-adv-y="2458" d="M34 1178v187h833v-187h-107q-71 0 -89 -25q-12 -17 -15 -61q0 -11 -2 -106v-477q0 -135 8 -174q34 -170 250 -170q148 0 207 80q28 38 38 103q8 50 8 161v477q-2 116 -5 138q-6 36 -33 46q-23 8 -68 8h-99v187h658v-187h-115q-71 0 -89 -25q-12 -17 -15 -61 q0 -11 -2 -106v-546q0 -139 -29 -210q-57 -137 -198 -205q-115 -55 -324 -55q-360 0 -501 163q-63 74 -81 173q-9 50 -9 134v546q-2 116 -5 138q-6 36 -33 46q-23 8 -68 8h-115z" />
<glyph unicode="V" horiz-adv-x="1444" vert-adv-y="2458" d="M-31 1178v187h792v-187h-99q-60 0 -75 -12t-15 -37q0 -15 17 -74l216 -746l223 763q14 49 14 65q0 23 -17 32t-82 9h-87v187h619v-187h-62q-50 0 -73 -12q-29 -15 -57 -84q-19 -49 -37 -107l-303 -975h-436l-299 975q-45 146 -71 173q-30 30 -105 30h-63z" />
<glyph unicode="W" horiz-adv-x="2097" vert-adv-y="2458" d="M-46 1178v187h706v-186h-55q-64 0 -64 -37q0 -11 11 -53l217 -780l197 644l-16 63q-23 88 -32 107q-28 56 -104 56h-51v186h704v-186h-84q-70 0 -70 -45q0 -16 7 -45l196 -780l199 754q9 35 9 58q0 36 -22 49q-16 9 -59 9h-82v186h582v-187h-60q-65 0 -95 -35 q-26 -31 -53 -128l-278 -1015h-429l-156 558l-165 -558h-430l-297 1015q-33 111 -60 136q-28 27 -92 27h-74z" />
<glyph unicode="X" horiz-adv-x="1522" vert-adv-y="2458" d="M-14 0v186h82q66 0 112 34q40 30 125 134l236 290l-276 386q-65 97 -90 117q-40 32 -88 32h-75v186h760v-186h-65q-54 0 -54 -30q0 -21 27 -61l134 -196l153 196q28 35 28 58q0 33 -57 33h-71v186h600v-186h-58q-66 0 -105 -32q-17 -14 -103 -114l-232 -281l295 -403 q83 -114 105 -133q33 -30 98 -30h69v-186h-806v186h84q45 0 59 9q14 8 14 24q0 17 -20 47l-160 243l-186 -243q-25 -33 -25 -51q0 -29 45 -29h96v-186h-651z" />
<glyph unicode="Y" horiz-adv-x="1448" vert-adv-y="2458" d="M-28 1179v186h811v-186h-86q-73 0 -73 -34q0 -14 23 -56l175 -317l180 317q25 44 25 59q0 31 -64 31h-87v186h603v-186h-77q-64 0 -100 -47q-5 -6 -81 -119l-308 -479v-155q2 -117 5 -138q6 -36 33 -46q22 -8 68 -8h134v-187h-859v187h134q72 0 89 24q13 18 16 62 q0 11 2 106v155l-301 479q-69 115 -90 135q-34 31 -94 31h-78z" />
<glyph unicode="Z" horiz-adv-x="1401" vert-adv-y="2458" d="M73 0v233l774 931h-289q-59 0 -90 -7.5t-57 -29.5q-102 -83 -102 -297h-206v535h1227v-201l-805 -978h281q118 0 173 27q91 46 121 179q12 52 16 155h214v-547h-1257z" />
<glyph unicode="[" horiz-adv-x="741" vert-adv-y="2458" d="M116 -401v1766h571v-169h-211v-1429h211v-168h-571z" />
<glyph unicode="\" horiz-adv-x="801" vert-adv-y="2458" d="M85 1365h214l544 -1787h-217z" />
<glyph unicode="]" horiz-adv-x="741" vert-adv-y="2458" d="M54 -233h210v1429h-210v169h570v-1766h-570v168z" />
<glyph unicode="^" vert-adv-y="2458" d="M11 567l387 807h229l387 -807h-247l-255 517l-254 -517h-247z" />
<glyph unicode="_" vert-adv-y="2458" d="M0 -96h1024v-161h-1024v161z" />
<glyph unicode="`" vert-adv-y="2458" d="M180 1350q0 21 19 33q13 8 58 8h238l113 -326h-138l-260 239q-30 28 -30 46z" />
<glyph unicode="a" horiz-adv-x="1226" vert-adv-y="2458" d="M85 237q0 126 93 188q48 32 107 47q53 14 127 27q160 30 219 65q64 39 64 123q0 51 -27 82q-59 68 -192 68q-116 0 -183 -60q41 8 66 8q59 0 87 -39q22 -30 22 -71q0 -62 -45 -94q-45 -33 -107 -33q-83 0 -139 54q-45 43 -45 111q0 66 45 124q99 126 417 126 q194 0 288 -41q102 -44 140 -154q18 -51 18 -178v-324q0 -76 14 -95q11 -17 31 -17q21 0 33 15q20 24 20 111q0 25 -1 63h102q6 -100 6 -136q0 -112 -51 -164q-71 -73 -223 -73q-135 0 -211 56q-41 31 -59 108q-80 -164 -299 -164q-143 0 -224 62q-93 71 -93 205zM436 260 q0 -51 37 -81q29 -24 74 -24q68 0 108 49q34 41 34 106v164q-51 -45 -103 -68q-96 -43 -116 -65q-34 -36 -34 -81z" />
<glyph unicode="b" horiz-adv-x="1280" vert-adv-y="2458" d="M29 1189v176h499v-561q57 75 105 106q81 53 189 53q132 0 231 -75q161 -122 161 -404q0 -292 -151 -426q-99 -88 -261 -88q-158 0 -250 66q-39 28 -83 94l-54 -142h-245v1012q-1 137 -5 152q-8 26 -29 32q-18 5 -63 5h-44zM521 458q0 -124 41 -216q38 -88 119 -88 q157 0 157 323q0 302 -154 302q-70 0 -108 -66q-55 -96 -55 -255z" />
<glyph unicode="c" horiz-adv-x="1092" vert-adv-y="2458" d="M67 473q0 265 189 397q132 93 321 93q146 0 264 -60q99 -50 149 -155q27 -55 27 -118q0 -104 -71 -165q-55 -48 -133 -48q-84 0 -136 54q-43 45 -43 108q0 72 53 116q36 30 76 30q13 0 37 -5q-63 58 -142 58q-215 0 -215 -321q0 -127 42 -211q45 -92 154 -92 q151 0 161 202h213q-17 -142 -75 -230q-103 -156 -348 -156q-211 0 -343 100q-96 72 -142 196q-38 100 -38 207z" />
<glyph unicode="d" horiz-adv-x="1290" vert-adv-y="2458" d="M68 466q0 166 62 303q48 107 149 157q74 37 171 37q129 0 217 -68q40 -31 93 -106v211q-1 138 -5 152q-7 26 -29 32q-18 5 -61 5h-74v176h520v-1004q1 -137 5 -151q7 -27 27 -32q18 -5 60 -5h66v-173h-509v147q-46 -94 -100 -130q-73 -47 -183 -47q-177 0 -288 118 q-67 70 -99 196q-22 87 -22 182zM434 452q0 -129 36 -209q41 -89 123 -89q95 0 135 106q36 98 36 218q0 125 -39 208q-43 92 -128 92q-81 0 -123 -88q-40 -87 -40 -238z" />
<glyph unicode="e" horiz-adv-x="1130" vert-adv-y="2458" d="M68 473q0 153 77 275q136 216 420 216q490 0 497 -548h-629v-8q0 -253 186 -253q154 0 174 169h252q-31 -122 -101 -201q-134 -153 -374 -153q-209 0 -335 114q-86 78 -131 193q-36 95 -36 196zM435 573h282q-5 97 -23 138q-30 68 -113 68q-82 0 -117 -75 q-21 -45 -29 -131z" />
<glyph unicode="f" horiz-adv-x="813" vert-adv-y="2458" d="M72 0v177h67q63 0 78 14q14 14 16 57q0 16 1 118v391h-162v177h162v113q0 346 395 346q155 0 245 -64q88 -62 88 -159q0 -69 -47 -114q-41 -39 -113 -39q-69 0 -108 38q-34 33 -34 84q0 62 45 91q17 11 55 22q-28 13 -52 13q-134 0 -134 -139q0 -23 5 -102q3 -43 6 -90 h175v-177h-175v-391q1 -137 5 -152q7 -26 29 -32q18 -5 63 -5h78v-177h-688z" />
<glyph unicode="g" horiz-adv-x="1265" vert-adv-y="2458" d="M36 -235q0 79 81 120q31 16 83 30q-65 33 -92 63q-43 49 -43 123q0 102 76 156q32 22 101 41q-63 52 -91 92q-55 77 -55 183q0 168 126 279q68 61 174 90q75 21 154 21q146 0 250 -55q26 -13 75 -46q49 51 81 72q57 39 130 39q102 0 166 -65q53 -54 53 -132 q0 -75 -46 -118q-37 -33 -90 -33q-59 0 -93 39q-34 40 -34 93t44 105q-22 4 -36 4q-64 0 -118 -64q68 -110 68 -211q0 -103 -58 -191q-121 -182 -396 -182q-113 0 -241 42q-30 -25 -30 -52q0 -87 206 -87l291 10q188 0 284 -72q51 -39 76 -106q17 -45 17 -95q0 -85 -47 -152 q-57 -79 -186 -112q-113 -28 -310 -28q-291 0 -444 54q-126 44 -126 145zM298 -211q0 -43 65 -62q77 -22 252 -22t249 32q43 18 43 55q0 44 -58 57q-79 18 -279 18q-166 0 -224 -21q-48 -18 -48 -57zM430 580q0 -136 41 -203q26 -43 75 -43q119 0 119 254q0 123 -21 187 q-26 75 -93 75q-121 0 -121 -270z" />
<glyph unicode="h" horiz-adv-x="1386" vert-adv-y="2458" d="M54 0v177h69q64 0 79 14q14 14 16 57q0 16 1 118v634q-1 137 -5 152q-7 27 -29 32q-16 5 -62 5h-69v176h516v-558q99 156 328 156q197 0 280 -105q41 -52 46 -122q3 -41 3 -123v-247q1 -137 5 -152q7 -26 29 -32q16 -5 62 -5h55v-177h-614v177h9q64 0 78 14t16 57 q0 16 1 118v144q0 135 -7 171q-21 98 -133 98q-83 0 -126 -59q-32 -44 -32 -119v-235q1 -137 5 -152q8 -27 30 -32q17 -5 64 -5h21v-177h-636z" />
<glyph unicode="i" horiz-adv-x="749" vert-adv-y="2458" d="M68 0v177h69q68 0 82 18q12 15 13 64q0 10 1 107v202q-1 138 -5 152q-7 26 -29 32q-18 5 -62 5h-69v177h516v-568q1 -137 5 -152q7 -26 28 -32q18 -5 61 -5h64v-177h-674zM213 1190q0 81 62 138q53 48 128 48q79 0 136 -62q48 -53 48 -125q0 -83 -62 -139 q-54 -48 -125 -48q-83 0 -139 62q-48 53 -48 126z" />
<glyph unicode="j" horiz-adv-x="774" vert-adv-y="2458" d="M-126 -202q0 77 51 126q48 46 122 46q84 0 124 -55q27 -37 27 -91q0 -59 -30 -95q-12 -15 -41 -34q26 -12 42 -12q23 0 45 13q56 33 56 128l-6 142v602q-1 137 -5 152q-7 26 -29 32q-18 5 -62 5h-80v177h527v-968q0 -119 -8 -164q-24 -130 -134 -192q-97 -55 -237 -55 q-111 0 -209 40q-80 33 -123 97q-30 45 -30 106zM251 1192q0 81 62 137q54 49 129 49q80 0 137 -62q48 -54 48 -126q0 -84 -62 -139q-55 -49 -126 -49q-83 0 -140 62q-48 54 -48 128z" />
<glyph unicode="k" horiz-adv-x="1382" vert-adv-y="2458" d="M55 0v177h71q65 0 79 14t16 57q0 16 1 118v634q-1 137 -5 152q-7 27 -29 32q-17 5 -62 5h-71v176h518v-872l246 213q15 13 15 26q0 25 -49 25h-88v177h626v-177h-90q-43 0 -70.5 -10.5t-61.5 -38.5l-110 -91l213 -347q35 -58 67 -76q32 -17 84 -17h63v-177h-671v177h57 q40 0 40 25q0 12 -35 68l-84 136l-152 -136q0 -61 10 -75q12 -18 52 -18h34v-177h-614z" />
<glyph unicode="l" horiz-adv-x="751" vert-adv-y="2458" d="M55 0v177h69q65 0 79 14q14 15 16 57q0 16 1 118v634q-1 137 -5 152q-7 26 -29 32q-16 5 -62 5h-69v176h516v-999q1 -138 5 -152q8 -27 29 -32q18 -5 63 -5h63v-177h-676z" />
<glyph unicode="m" horiz-adv-x="1967" vert-adv-y="2458" d="M68 0v177h68q69 0 82 19q12 15 13 63q0 10 1 107v202q-1 137 -5 152q-7 26 -29 32q-18 5 -62 5h-68v177h508v-158q50 93 107 131q86 57 214 57q167 0 241 -91q27 -33 48 -97q41 81 94 121q89 67 225 67q125 0 211 -58q57 -38 79 -119q12 -44 12 -194v-227q1 -136 5 -152 q7 -26 29 -32q19 -5 62 -5h57v-177h-604v177q21 2 32 2q41 1 52 17q11 17 12 63q0 10 1 107v217q0 117 -18 146q-33 53 -106 53q-74 0 -114 -59q-29 -45 -29 -140v-217q1 -136 5 -152q7 -26 29 -32q8 -2 62 -5v-177h-540v177q25 1 38 2q42 1 52 17q12 16 13 63q0 10 1 107 v217q0 108 -23 145q-31 52 -104 52q-143 0 -143 -197v-217q1 -119 3 -138q3 -39 33 -46q14 -4 59 -5v-177h-603z" />
<glyph unicode="n" horiz-adv-x="1377" vert-adv-y="2458" d="M68 0v177h64q65 0 79 14t16 57q0 16 1 118v202q-1 137 -5 152q-8 27 -29 32q-17 5 -62 5h-64v177h505v-135q62 86 117 118q80 47 212 47q207 0 278 -109q36 -56 40 -139q2 -46 2 -132v-218q1 -138 5 -152q7 -27 29 -32q16 -5 62 -5h53v-177h-608v177h10q64 0 78 14t16 57 q0 16 1 118v215q0 94 -20 132q-35 67 -120 67q-84 0 -122 -63q-33 -52 -33 -136v-215q1 -137 5 -152q7 -27 29 -32q17 -5 62 -5h15v-177h-616z" />
<glyph unicode="o" horiz-adv-x="1211" vert-adv-y="2458" d="M68 465q0 243 158 377q143 121 377 121q266 0 414 -155q126 -132 126 -341q0 -173 -98 -302q-148 -195 -441 -195q-163 0 -269 53q-146 72 -217 213q-50 100 -50 229zM443 460q0 -154 33 -236q34 -85 126 -85q93 0 129 88q37 90 37 264q0 145 -30 218q-35 85 -126 85 q-86 0 -123 -74q-46 -91 -46 -260z" />
<glyph unicode="p" horiz-adv-x="1311" vert-adv-y="2458" d="M27 -246h77q64 0 79 14q14 13 16 57q0 16 1 118v625q-1 137 -5 152q-7 26 -29 32q-18 5 -62 5h-63v177h510v-144q49 84 100 119q81 55 202 55q169 0 270 -109q62 -67 95 -191q25 -95 25 -192q0 -170 -61 -310q-84 -192 -325 -192q-141 0 -222 63q-36 28 -84 92v-182 q1 -138 5 -152q7 -26 29 -32q18 -5 62 -5h59v-176h-679v176zM552 437q0 -142 45 -226q39 -72 114 -72q85 0 124 96q33 81 33 220q0 163 -35 243q-37 82 -117 82q-83 0 -120 -85q-44 -99 -44 -258z" />
<glyph unicode="q" horiz-adv-x="1303" vert-adv-y="2458" d="M68 456q0 165 67 301q54 109 166 165q84 42 186 42q129 0 204 -66q31 -28 73 -91v127h511v-177h-64q-65 0 -79 -14t-16 -57q0 -16 -1 -118v-625q1 -138 5 -152q8 -27 29 -32q16 -5 62 -5h64v-176h-683v176h76q65 0 79 14t16 57q0 16 1 118v190q-60 -88 -119 -120 q-78 -43 -180 -43q-176 0 -282 119q-61 69 -93 189q-22 85 -22 178zM443 446q0 -292 157 -292q78 0 122 73q48 81 48 249q0 147 -41 223q-45 80 -126 80q-74 0 -111 -71q-49 -93 -49 -262z" />
<glyph unicode="r" horiz-adv-x="1003" vert-adv-y="2458" d="M68 0v177h75q64 0 79 14q14 14 16 57q0 16 1 118v202q-1 138 -5 152q-8 26 -29 32q-16 5 -62 5h-75v177h511v-177q48 94 82 134q61 73 161 73q109 0 164 -77q42 -58 42 -144q0 -101 -54 -153q-49 -48 -121 -48q-67 0 -111 42t-44 111q0 96 90 125q-26 7 -39 7 q-37 0 -76 -35q-66 -58 -84 -153q-10 -55 -10 -143v-130q1 -137 5 -152q8 -27 29 -32q16 -5 62 -5h69v-177h-676z" />
<glyph unicode="s" horiz-adv-x="1086" vert-adv-y="2458" d="M65 652q0 151 133 239q113 74 320 74q127 0 216 -37q36 -14 87 -45l19 51h143v-314h-162q-40 175 -262 175q-135 0 -135 -82q0 -18 12 -31q29 -32 142 -59q172 -43 246 -73q134 -53 176 -133q27 -52 27 -116q0 -106 -65 -191q-109 -141 -349 -141q-147 0 -261 49 q-40 18 -95 56l-19 -74h-162v340h162q30 -93 107 -141q94 -60 207 -60q133 0 133 76q0 19 -10 31q-24 30 -135 59q-177 47 -239 72q-236 93 -236 275z" />
<glyph unicode="t" horiz-adv-x="952" vert-adv-y="2458" d="M38 757v165q144 12 217 101q77 96 80 293h240v-382h245v-177h-245v-408q0 -95 10 -142q13 -53 66 -53q48 0 66 51q12 35 12 124q0 32 -2 131h175v-100v-13q0 -140 -21 -196q-66 -181 -302 -181q-190 0 -283 102q-55 59 -65 141q-7 56 -7 136v408h-186z" />
<glyph unicode="u" horiz-adv-x="1316" vert-adv-y="2458" d="M7 757v177h496v-580q0 -120 29 -161q33 -45 105 -45q162 0 162 206v214q-1 137 -5 152q-7 26 -29 32q-18 5 -62 5h-75v177h514v-568q1 -137 5 -152q7 -26 29 -32q18 -5 62 -5h72v-177h-511v136q-91 -167 -319 -167q-184 0 -260 93q-53 63 -58 150q-2 39 -2 132v224 q-1 138 -5 152q-8 27 -29 32q-19 5 -62 5h-57z" />
<glyph unicode="v" horiz-adv-x="1193" vert-adv-y="2458" d="M-5 757v177h658v-177h-67q-48 0 -62 -12q-8 -8 -8 -25t11 -50l154 -456l156 456q11 32 11 52q0 35 -51 35h-72v177h474v-177h-45q-57 0 -82 -23q-29 -28 -57 -108l-218 -626h-405l-213 626q-26 74 -47 101q-25 30 -82 30h-55z" />
<glyph unicode="w" horiz-adv-x="1705" vert-adv-y="2458" d="M-10 757v177h598v-177h-31q-43 0 -57 -13q-7 -6 -7 -24q0 -15 5 -32l120 -457l134 457q8 29 8 40q0 29 -51 29h-47v177h566v-177h-46q-54 0 -54 -34q0 -9 7 -35l122 -457l131 457q7 26 7 35q0 34 -45 34h-48v177h411v-177h-41q-50 0 -71 -17q-18 -15 -48 -117l-180 -623 h-389l-128 452l-127 -452h-384l-180 623q-21 74 -44 103q-24 31 -72 31h-59z" />
<glyph unicode="x" horiz-adv-x="1263" vert-adv-y="2458" d="M2 0v177h71q49 0 77 16q32 17 113 93l176 165l-209 218q-42 44 -77 67q-33 21 -78 21h-53v177h663v-177h-37q-36 0 -36 -19q0 -15 18 -33l87 -89l105 93q16 14 16 28q0 20 -35 20h-46v177h490v-177h-47q-55 0 -91 -17q-20 -9 -88 -68l-199 -170l208 -216q70 -72 90 -87 q32 -22 89 -22h52v-177h-680v177h31q51 0 51 23q0 13 -16 31l-100 110l-108 -109q-16 -16 -16 -30q0 -25 34 -25h43v-177h-498z" />
<glyph unicode="y" horiz-adv-x="1222" vert-adv-y="2458" d="M-1 757v177h689v-177h-76q-35 0 -47 -6q-13 -6 -13 -23q0 -10 16 -49l148 -372l160 372q13 29 13 46q0 32 -58 32h-74v177h474v-177h-56q-50 0 -76 -35q-19 -26 -51 -96l-318 -705q-100 -222 -194 -292q-96 -72 -236 -72q-145 0 -222 77q-68 67 -68 169q0 104 66 161 q53 46 125 46q73 0 122 -45q43 -40 43 -109q0 -83 -59 -121q-30 -20 -71 -20q-12 0 -32 1q44 -32 89 -32q81 0 145 82q46 60 91 155l-323 705q-40 83 -53 99q-24 32 -78 32h-76z" />
<glyph unicode="z" horiz-adv-x="1035" vert-adv-y="2458" d="M53 0v213l489 544h-141q-100 0 -126 -53q-16 -31 -20 -169h-179v399h904v-177l-510 -580h127q120 0 166 48q20 20 27 45q10 31 10 101v73h180v-444h-927z" />
<glyph unicode="{" horiz-adv-x="1025" vert-adv-y="2458" d="M145 381v188q62 13 86 48q27 39 27 135v319q0 172 86 238q55 42 136 52q34 4 90 4q79 0 229 -4v-184q-28 1 -41 1q-96 0 -127 -18t-35 -66q-1 -17 -1 -106v-255q0 -125 -42 -186q-20 -30 -80 -72q59 -39 82 -75q40 -64 40 -183v-255q0 -125 11 -145q16 -32 67 -40 q34 -5 87 -5q11 0 39 1v-184q-182 -4 -232 -4q-98 0 -150 18q-108 37 -140 137q-19 58 -19 140v318q0 98 -27 134q-29 38 -86 49z" />
<glyph unicode="|" horiz-adv-x="1023" vert-adv-y="2458" d="M394 -341v1706h235v-1706h-235z" />
<glyph unicode="}" horiz-adv-x="1025" vert-adv-y="2458" d="M225 -227q28 -1 39 -1q98 0 128 18q30 17 35 67q1 16 1 105v255q0 86 19 139q15 42 41 70q19 21 62 49q-66 46 -87 82q-35 61 -35 176v255q0 125 -11 145q-16 32 -66 40q-34 5 -86 5q-12 0 -40 -1v184q159 4 230 4q99 0 151 -18q108 -36 140 -137q19 -57 19 -139v-319 q0 -96 27 -135q24 -35 87 -48v-188q-58 -11 -87 -49q-27 -36 -27 -134v-318q0 -172 -86 -239q-73 -56 -225 -56q-48 0 -229 4v184z" />
<glyph unicode="~" horiz-adv-x="1359" vert-adv-y="2458" d="M181 1300q58 103 101 151q83 94 188 94q76 0 243 -74q102 -45 126 -53q34 -11 57 -11q52 0 99 50q31 32 76 109l107 -123q-63 -107 -110 -156q-77 -78 -173 -78q-43 0 -105 21q-14 5 -118 49q-106 45 -125 52q-43 16 -75 16q-59 0 -106 -52q-33 -37 -78 -121z" />
<glyph unicode="&#xa0;" horiz-adv-x="512" vert-adv-y="2458" />
<glyph unicode="&#xa1;" vert-adv-y="2458" d="M160 1391h287l110 -165l147 165h160l-215 -326h-264z" />
<glyph unicode="&#xa2;" vert-adv-y="2458" d="M177 1387h143q18 -60 45 -86q50 -47 151 -47t149 54q21 24 40 79h143q-12 -136 -83 -219q-89 -105 -252 -105q-98 0 -179 46q-91 51 -132 153q-17 44 -25 125z" />
<glyph unicode="&#xa3;" horiz-adv-x="1284" vert-adv-y="2458" d="M124 179q111 76 151 129q35 47 35 109q0 80 -58 163h-128v133h63q-47 99 -47 171q0 166 159 279q79 55 206 83q94 21 194 21q269 0 429 -127q120 -95 120 -231q0 -98 -62 -154q-57 -52 -136 -52q-78 0 -133 51q-54 51 -54 123q0 74 59 112q36 23 79 23q12 0 34 -2 q-47 42 -89 56q-56 19 -133 19q-150 0 -228 -62q-59 -47 -59 -112q0 -53 27 -104q37 -72 48 -94h171v-133h-127q13 -43 13 -77q0 -76 -47 -131q-25 -30 -95 -89q102 28 151 28q60 0 110 -26q41 -21 94 -59q71 -51 112 -51q49 0 72 45q13 25 17 116h169v-38q0 -118 -45 -198 q-37 -68 -109 -102q-58 -28 -121 -28q-94 0 -257 63q-142 55 -227 55q-86 0 -158 -44q-25 -16 -72 -52z" />
<glyph unicode="&#xa5;" horiz-adv-x="1506" vert-adv-y="2458" d="M-38 0v187h66q55 0 84 21q34 24 70 131l349 1026h472l319 -1026q33 -107 64 -131q27 -21 91 -21h68v-187h-41q-105 -58 -105 -146q0 -86 84 -86q21 0 62 8v-165q-63 -17 -118 -17q-124 0 -189 56q-55 49 -55 137q0 79 46 138q25 33 94 75h-557v187h81q62 0 77 8 q21 12 21 39q0 18 -27 105l-35 105h-419l-35 -105q-27 -87 -27 -102q0 -50 95 -50h89v-187h-624zM520 620h308l-150 460z" />
<glyph unicode="&#xa7;" horiz-adv-x="1282" vert-adv-y="2458" d="M106 479q0 151 116 245q39 31 95 53q-141 102 -141 251q0 109 78 200q141 165 414 165q195 0 318 -77q62 -39 92 -105q14 -32 14 -69q0 -46 -23 -86q-45 -76 -143 -76q-72 0 -121 44q-35 32 -35 81q0 36 20 64q24 33 30 44q-76 32 -153 32q-139 0 -207 -77 q-31 -35 -31 -79q0 -61 74 -103q51 -28 353 -119q165 -50 241 -124q80 -77 80 -189q0 -137 -113 -229q-40 -31 -104 -67q74 -46 109 -92q53 -68 53 -161q0 -204 -191 -318q-136 -81 -342 -81q-205 0 -330 88q-110 78 -110 190q0 77 61 128q51 43 121 43q79 0 123 -48 q33 -36 33 -89q0 -49 -32 -88q-11 -13 -36 -35q63 -41 152 -41q159 0 246 86q40 39 40 97q0 50 -29 81q-35 37 -90 58q-62 22 -147 44q-232 60 -332 115q-153 83 -153 244zM343 567q0 -57 51 -100q44 -37 129 -64q211 -69 270 -69q51 0 88 30q55 45 55 107q0 64 -56 101 q-37 25 -185 79q-147 53 -205 53q-70 0 -113 -49q-34 -39 -34 -88z" />
<glyph unicode="&#xa8;" vert-adv-y="2458" d="M158 1223q0 63 49 108q42 38 101 38q62 0 107 -49q38 -42 38 -98q0 -66 -49 -110q-42 -38 -99 -38q-65 0 -109 49q-38 42 -38 100zM572 1223q0 63 49 108q42 38 101 38q62 0 107 -49q38 -42 38 -98q0 -66 -49 -110q-42 -38 -98 -38q-66 0 -110 49q-38 42 -38 100z" />
<glyph unicode="&#xa9;" horiz-adv-x="1556" vert-adv-y="2458" d="M68 682q0 202 105 375q103 169 286 261q152 77 331 77q190 0 360 -106q170 -105 260 -283q78 -153 78 -324q0 -200 -104 -371t-281 -262q-152 -79 -323 -79q-198 0 -369 104q-172 104 -264 283q-79 154 -79 325zM210 682q0 -243 169 -415q168 -169 400 -169 q235 0 401 171t166 413q0 165 -84 306q-81 138 -224 215q-120 64 -250 64q-241 0 -409 -169q-169 -171 -169 -416zM389 678q0 206 137 311q103 78 252 78q130 0 197 -69l15 53h126v-294h-128q-4 193 -162 193q-93 0 -139 -83q-37 -67 -37 -178q0 -118 35 -183 q49 -91 143 -91q81 0 123 59q33 46 37 145h128q0 -90 -26 -149q-77 -172 -312 -172q-148 0 -243 66q-146 103 -146 314z" />
<glyph unicode="&#xaa;" horiz-adv-x="1414" vert-adv-y="2458" d="M82 0v528h207q20 -107 60 -164q80 -113 226 -166q90 -33 189 -33q119 0 177 53q44 40 44 97q0 81 -80 127q-47 26 -176 50q-208 40 -311 74q-194 66 -269 171q-66 93 -66 225q0 206 153 319q155 114 414 114q178 0 304 -55q57 -25 128 -84l38 109h183v-509h-201 q-19 152 -113 235q-110 97 -288 97q-98 0 -168 -33q-81 -39 -81 -117q0 -67 75 -103q49 -24 193 -50q232 -43 320 -76q319 -120 319 -406q0 -205 -150 -322q-142 -111 -399 -111h-30l-70 -86q7 1 10 1q33 2 39 2q62 0 109 -21q26 -12 46 -38q28 -36 28 -81q0 -58 -46 -109 q-69 -76 -209 -76q-106 0 -222 49l41 86q88 -34 140 -34q36 0 60 19q23 19 23 56q0 34 -26 55q-20 15 -45 15q-26 0 -60 -20l-49 49l103 142q-88 16 -130 27q-93 26 -211 98l-39 -104h-190z" />
<glyph unicode="&#xab;" horiz-adv-x="814" vert-adv-y="2458" d="M91 478q0 88 61 193q20 35 66 98h158q-79 -168 -79 -303t79 -293h-158q-127 173 -127 305zM442 477q0 89 61 194q20 35 66 98h159q-80 -167 -80 -303q0 -135 80 -293h-159q-127 175 -127 304z" />
<glyph unicode="&#xac;" vert-adv-y="2458" d="M66 264v216h889v-480h-236v264h-653z" />
<glyph unicode="&#xad;" horiz-adv-x="532" vert-adv-y="2458" d="M0 369v244h532v-244h-532z" />
<glyph unicode="&#xae;" horiz-adv-x="1556" vert-adv-y="2458" d="M68 682q0 202 105 375q103 169 286 261q152 77 331 77q190 0 360 -106q170 -105 260 -283q78 -153 78 -324q0 -200 -104 -371t-281 -262q-152 -79 -323 -79q-198 0 -369 104q-172 104 -264 283q-79 154 -79 325zM210 682q0 -243 169 -415q168 -169 400 -169 q235 0 401 171t166 413q0 165 -84 306q-81 138 -224 215q-120 64 -250 64q-241 0 -409 -169q-169 -171 -169 -416zM375 314v113h56q39 0 46 13q5 9 6 81v323q-2 75 -8 84q-8 11 -44 11h-56v112h482q92 0 126 -7q82 -18 124 -76q32 -44 32 -94q0 -55 -34 -108 q-18 -29 -44 -40q-3 -2 -64 -23l-2 -2l4 -4q4 -3 22 -7q30 -6 51 -36q26 -36 26 -103v-75q0 -57 24 -57q15 0 20 13q5 12 6 65v33h86v-6q3 -43 3 -55q0 -70 -33 -110q-50 -61 -144 -61q-100 0 -149 53q-48 52 -48 170l1 69q0 32 -18 44q-13 9 -57 9h-73v-122q1 -75 8 -84 q8 -10 43 -10h50v-113h-442zM716 750q49 -1 64 -1q75 0 96 22q26 26 26 75q0 50 -28 74q-23 19 -87 19h-71v-189z" />
<glyph unicode="&#xaf;" horiz-adv-x="1401" vert-adv-y="2458" d="M73 0v233l774 931h-289q-59 0 -90 -7.5t-57 -29.5q-102 -83 -102 -297h-206v535h1227v-201l-805 -978h281q118 0 173 27q91 46 121 179q12 52 16 155h214v-547h-1257zM564 1634q0 66 51 112q44 40 105 40q65 0 112 -51q39 -43 39 -102q0 -68 -51 -114q-44 -40 -102 -40 q-68 0 -114 51q-40 44 -40 104z" />
<glyph unicode="&#xb0;" horiz-adv-x="1025" vert-adv-y="2458" d="M198 1045q0 126 92 214q95 91 223 91q130 0 223 -91q93 -90 93 -218t-91 -219q-94 -92 -224 -92q-132 0 -225 92q-91 91 -91 223zM355 1043q0 -67 46 -112q47 -47 113 -47q65 0 112 47q46 46 46 110q0 65 -47 110q-47 46 -112 46t-112 -46q-46 -46 -46 -108z" />
<glyph unicode="&#xb1;" vert-adv-y="2458" d="M14 -108v243h997v-243h-997zM14 576v242h374v356h248v-356h375v-242h-375v-343h-248v343h-374z" />
<glyph unicode="&#xb4;" vert-adv-y="2458" d="M415 1065l114 326h237q46 0 59 -8q18 -12 18 -33q0 -18 -29 -46l-261 -239h-138z" />
<glyph unicode="&#xb5;" horiz-adv-x="1283" vert-adv-y="2458" d="M7 737v173h483v-565q0 -117 29 -157q32 -44 103 -44q105 0 138 81q19 46 19 120v209q-1 132 -5 147q-7 26 -28 31q-17 5 -60 5h-73v173h500v-553q1 -134 5 -148q7 -26 28 -31q18 -5 61 -5h70v-173h-498v133q-87 -164 -305 -164q-27 0 -74 5q18 -45 27 -68 q52 -128 52 -182q0 -48 -26 -86q-24 -34 -76 -54q-47 -18 -101 -18q-80 0 -142 42q-63 43 -63 124q0 54 39 206q29 116 37 191q9 92 9 209v220v40q-1 32 -1 40q0 76 -22 90q-15 9 -71 9h-55z" />
<glyph unicode="&#xb6;" horiz-adv-x="1359" vert-adv-y="2458" d="M54 1004q0 118 57 205q70 105 218 137q91 19 196 19h545v-175h-163v-1378h-172v1378h-131v-1378h-161v845q-20 -1 -26 -1q-89 0 -177 40q-98 44 -145 133q-41 78 -41 175z" />
<glyph unicode="&#xb7;" horiz-adv-x="490" vert-adv-y="2458" d="M79 490q0 71 55 122q47 43 114 43q71 0 121 -55q43 -48 43 -111q0 -74 -55 -124q-48 -43 -112 -43q-73 0 -123 55q-43 48 -43 113z" />
<glyph unicode="&#xb8;" vert-adv-y="2458" d="M283 -389l42 86q88 -34 139 -34q36 0 60 19q23 19 23 56q0 34 -26 55q-20 15 -45 15t-60 -20l-49 49l117 163h139l-94 -116q6 1 9 1q34 2 39 2q62 0 109 -21q26 -12 46 -38q28 -36 28 -81q0 -58 -46 -109q-69 -76 -209 -76q-105 0 -222 49z" />
<glyph unicode="&#xba;" horiz-adv-x="1086" vert-adv-y="2458" d="M65 652q0 151 133 239q113 74 320 74q127 0 216 -37q36 -14 87 -45l19 51h143v-314h-162q-40 175 -262 175q-135 0 -135 -82q0 -18 12 -31q29 -32 142 -59q173 -43 246 -72q134 -54 176 -134q27 -51 27 -116q0 -123 -85 -214q-110 -117 -327 -118l-69 -85q6 1 10 1 q33 2 38 2q63 0 109 -21q26 -12 46 -38q28 -37 28 -81q0 -58 -46 -109q-69 -76 -208 -76q-106 0 -222 49l41 86q88 -34 140 -34q36 0 60 19q23 19 23 56q0 34 -26 55q-20 15 -45 15q-26 0 -60 -20l-49 49l102 141q-47 11 -77 20q-75 22 -153 76l-19 -74h-162v340h162 q30 -93 107 -141q94 -60 207 -60q133 0 133 76q0 19 -10 31q-24 30 -135 59q-177 47 -239 72q-236 93 -236 275z" />
<glyph unicode="&#xbb;" horiz-adv-x="814" vert-adv-y="2458" d="M85 173q80 166 80 303q0 136 -80 293h159q127 -174 127 -304q0 -119 -127 -292h-159zM437 173q79 168 79 303t-79 293h158q127 -175 127 -304q0 -119 -127 -292h-158z" />
<glyph unicode="&#xbf;" horiz-adv-x="1035" vert-adv-y="2458" d="M53 0v213l489 544h-141q-100 0 -126 -53q-16 -31 -20 -169h-179v399h904v-177l-510 -580h127q120 0 166 48q20 20 27 45q10 31 10 101v73h180v-444h-927zM374 1223q0 66 51 112q44 40 105 40q65 0 112 -51q39 -43 39 -102q0 -69 -51 -114q-44 -40 -102 -40q-68 0 -114 51 q-40 44 -40 104z" />
<glyph unicode="&#xc0;" horiz-adv-x="1652" vert-adv-y="2458" d="M68 0v187h115q71 0 89 24q12 18 15 62q0 11 2 105v608q-2 115 -6 138q-5 36 -32 46q-23 8 -68 8h-115v187h913q167 0 228 -14q146 -32 219 -138q55 -79 55 -177q0 -121 -77 -208q-59 -67 -154 -93q-34 -10 -106 -21q135 -20 188 -63q48 -38 64 -100q11 -45 11 -117v-142 q0 -82 19 -103q15 -16 38 -16q36 0 48 34q9 25 11 175h131q5 -72 5 -103q0 -141 -76 -221q-85 -88 -237 -88q-121 0 -205 52q-138 86 -138 352l2 134q0 75 -47 99q-27 13 -102 13h-170v-242q2 -115 5 -137q6 -36 33 -46q22 -8 68 -8h115v-187h-841zM572 1484l210 288h306 q54 0 66 -14q9 -11 9 -27q0 -31 -28 -45l-411 -202h-152zM688 796l140 -1q100 0 137 10q58 17 86 70q25 49 25 114q0 118 -69 161q-48 29 -152 29h-167v-383z" />
<glyph unicode="&#xc1;" horiz-adv-x="1506" vert-adv-y="2458" d="M-38 0v187h66q55 0 84 21q34 24 70 131l349 1026h472l319 -1026q33 -107 64 -131q27 -21 91 -21h68v-187h-779v187h81q62 0 77 8q21 12 21 39q0 18 -27 105l-35 105h-419l-35 -105q-27 -87 -27 -102q0 -50 95 -50h89v-187h-624zM520 620h308l-150 460zM623 1484l209 288 h306q54 0 66 -14q9 -11 9 -26q0 -32 -28 -45l-411 -203h-151z" />
<glyph unicode="&#xc2;" horiz-adv-x="1506" vert-adv-y="2458" d="M-38 0v187h66q55 0 84 21q34 24 70 131l349 1026h472l319 -1026q33 -107 64 -131q27 -21 91 -21h68v-187h-779v187h81q62 0 77 8q21 12 21 39q0 18 -27 105l-35 105h-419l-35 -105q-27 -87 -27 -102q0 -50 95 -50h89v-187h-624zM340 1485l279 287h292l283 -287h-311 l-173 145l-190 -145h-180zM520 620h308l-150 460z" />
<glyph unicode="&#xc3;" horiz-adv-x="1506" vert-adv-y="2458" d="M-38 0v187h66q55 0 84 21q34 24 70 131l349 1026h472l319 -1026q33 -107 64 -131q27 -21 91 -21h68v-187h-779v187h81q62 0 77 8q21 12 21 39q0 18 -27 105l-35 105h-419l-35 -105q-27 -87 -27 -102q0 -50 95 -50h89v-187h-624zM382 1775h162q16 -52 49 -74 q60 -39 178 -39q119 0 173 43q26 21 45 70h162q-25 -138 -101 -207q-94 -86 -289 -86q-189 0 -293 102q-63 61 -86 191zM520 620h308l-150 460z" />
<glyph unicode="&#xc4;" horiz-adv-x="1506" vert-adv-y="2458" d="M-38 0v187h66q55 0 84 21q34 24 70 131l349 1026h472l319 -1026q33 -107 64 -131q27 -21 91 -21h68v-187h-779v187h81q62 0 77 8q21 12 21 39q0 18 -27 105l-35 105h-419l-35 -105q-27 -87 -27 -102q0 -50 95 -50h89v-187h-624zM377 1630q0 63 49 108q42 38 101 38 q63 0 107 -49q38 -42 38 -98q0 -65 -49 -110q-42 -38 -98 -38q-66 0 -110 49q-38 42 -38 100zM520 620h308l-150 460zM862 1630q0 63 49 108q41 38 101 38q63 0 107 -49q38 -42 38 -98q0 -66 -49 -110q-42 -38 -99 -38q-65 0 -109 49q-38 42 -38 100z" />
<glyph unicode="&#xc5;" horiz-adv-x="1381" vert-adv-y="2458" d="M68 0v187h115q71 0 89 24q12 18 15 62q0 11 2 105v608q-2 115 -6 138q-5 36 -32 46q-23 8 -68 8h-115v187h841v-187h-115q-71 0 -89 -25q-12 -17 -15 -61q0 -11 -2 -106v-800h244q91 0 135 25q80 46 111 169q15 59 18 178h206v-558h-1334zM355 1484l209 288h306 q55 0 67 -14q9 -11 9 -26q0 -31 -29 -45l-410 -203h-152z" />
<glyph unicode="&#xc6;" horiz-adv-x="1451" vert-adv-y="2458" d="M67 675q0 382 245 575q184 145 451 145q168 0 262 -54q46 -26 102 -88l30 112h208v-529h-208q-4 157 -62 244q-41 61 -112 92q-62 28 -134 28q-176 0 -263 -163q-69 -130 -69 -343q0 -225 65 -351q92 -178 272 -178q196 0 270 184q27 67 33 200h208q0 -152 -47 -262 q-79 -185 -259 -266q-114 -51 -301 -51q-262 0 -430 123q-119 86 -179 210q-82 169 -82 372zM595 1484l209 288h306q54 0 66 -14q9 -11 9 -27q0 -31 -28 -45l-411 -202h-151z" />
<glyph unicode="&#xc7;" horiz-adv-x="1451" vert-adv-y="2458" d="M67 675q0 382 245 575q184 145 451 145q168 0 262 -54q45 -26 102 -88l30 112h208v-529h-208q-4 157 -62 244q-41 61 -112 92q-62 28 -134 28q-176 0 -263 -163q-69 -129 -69 -343q0 -225 65 -351q92 -178 272 -178q196 0 270 184q27 67 33 200h208q1 -233 -119 -383 q-122 -153 -332 -185q-42 -7 -101 -10l-71 -87q7 1 10 1q33 2 39 2q62 0 109 -21q26 -12 46 -38q28 -36 28 -81q0 -58 -46 -109q-69 -76 -209 -76q-106 0 -222 49l41 86q88 -34 140 -34q36 0 60 19q23 19 23 56q0 34 -26 55q-20 15 -45 15q-26 0 -60 -20l-49 49l97 136 q-151 12 -260 65q-154 76 -242 216q-109 175 -109 421z" />
<glyph unicode="&#xc8;" horiz-adv-x="1451" vert-adv-y="2458" d="M67 675q0 382 245 575q184 145 451 145q168 0 262 -54q46 -26 102 -88l30 112h208v-529h-208q-4 157 -62 244q-41 61 -112 92q-62 28 -134 28q-176 0 -263 -163q-69 -130 -69 -343q0 -225 65 -351q92 -178 272 -178q196 0 270 184q27 67 33 200h208q0 -152 -47 -262 q-79 -185 -259 -266q-114 -51 -301 -51q-262 0 -430 123q-119 86 -179 210q-82 169 -82 372zM326 1772h310l173 -145l191 145h180l-280 -287h-292z" />
<glyph unicode="&#xc9;" horiz-adv-x="1577" vert-adv-y="2458" d="M68 0v187h115q71 0 89 25q12 17 15 61q0 11 2 106v608q-2 115 -5 137q-6 36 -33 46q-23 8 -68 8h-115v187h1406v-527h-214q-1 163 -62 253q-41 60 -120 80q-30 8 -119 8h-271v-387h70q110 0 143 85q13 32 14 129h180v-614h-180v42q0 101 -44 141q-39 36 -118 36h-65v-425 h227q140 0 178 11q70 21 118 98q34 58 44 167q2 25 5 98h214v-560h-1406zM651 1484l209 288h306q54 0 66 -14q9 -11 9 -26q0 -32 -28 -45l-411 -203h-151z" />
<glyph unicode="&#xca;" horiz-adv-x="1577" vert-adv-y="2458" d="M68 0v187h115q71 0 89 24q12 18 15 62q0 11 2 106v608q-2 116 -5 137q-6 36 -33 46q-23 8 -68 8h-115v187h1406v-527h-214q-1 163 -62 253q-41 60 -120 80q-30 8 -119 8h-271v-387h70q110 0 143 85q13 32 14 129h180v-614h-180v42q0 101 -44 140q-39 37 -118 37h-65v-425 h227q140 0 178 11q70 20 118 98q34 58 44 167q2 25 5 98h214v-560h-41q-104 -58 -104 -146q0 -86 83 -86q21 0 62 8v-165q-63 -17 -118 -17q-124 0 -188 56q-55 49 -55 138q0 133 139 212h-1184z" />
<glyph unicode="&#xcb;" horiz-adv-x="1577" vert-adv-y="2458" d="M68 0v187h115q71 0 89 25q12 17 15 61q0 11 2 106v608q-2 115 -5 137q-6 36 -33 46q-23 8 -68 8h-115v187h1406v-527h-214q-1 163 -62 253q-41 60 -120 80q-30 8 -119 8h-271v-387h70q110 0 143 85q13 32 14 129h180v-614h-180v42q0 101 -44 141q-39 36 -118 36h-65v-425 h227q140 0 178 11q70 21 118 98q34 58 44 167q2 25 5 98h214v-560h-1406zM419 1630q0 63 49 108q42 38 101 38q63 0 107 -49q38 -42 38 -98q0 -66 -49 -110q-42 -38 -98 -38q-66 0 -110 49q-38 42 -38 100zM904 1630q0 63 49 108q41 38 101 38q62 0 107 -49q38 -42 38 -98 q0 -66 -49 -110q-42 -38 -99 -38q-65 0 -109 49q-38 42 -38 100z" />
<glyph unicode="&#xcc;" horiz-adv-x="1577" vert-adv-y="2458" d="M68 0v187h115q71 0 89 25q12 17 15 61q0 11 2 106v608q-2 115 -5 137q-6 36 -33 46q-23 8 -68 8h-115v187h1406v-527h-214q-1 163 -62 253q-41 60 -120 80q-30 8 -119 8h-271v-387h70q110 0 143 85q13 32 14 129h180v-614h-180v42q0 101 -44 141q-39 36 -118 36h-65v-425 h227q140 0 178 11q70 21 118 98q34 58 44 167q2 25 5 98h214v-560h-1406zM388 1772h311l173 -145l191 145h179l-279 -287h-292z" />
<glyph unicode="&#xcd;" horiz-adv-x="971" vert-adv-y="2458" d="M67 0v187h115q71 0 89 24q12 18 15 62q0 11 2 105v608q-2 115 -6 138q-5 36 -32 46q-23 8 -68 8h-115v187h834v-187h-115q-71 0 -88 -25q-13 -17 -16 -61q0 -11 -2 -106v-608q2 -116 5 -137q6 -36 33 -46q23 -8 68 -8h115v-187h-834zM334 1484l210 288h306q54 0 66 -14 q9 -11 9 -26q0 -31 -28 -45l-411 -203h-152z" />
<glyph unicode="&#xce;" horiz-adv-x="971" vert-adv-y="2458" d="M58 1485l279 287h292l283 -287h-311l-172 145l-191 -145h-180zM67 0v187h115q71 0 89 24q12 18 15 62q0 11 2 105v608q-2 115 -6 138q-5 36 -32 46q-23 8 -68 8h-115v187h834v-187h-115q-71 0 -88 -25q-13 -17 -16 -61q0 -11 -2 -106v-608q2 -116 6 -137q5 -36 32 -46 q22 -8 68 -8h115v-187h-834z" />
<glyph unicode="&#xcf;" horiz-adv-x="1708" vert-adv-y="2458" d="M68 0v187h115q71 0 89 24q12 18 15 62q0 11 2 105v608q-2 115 -6 138q-5 36 -32 46q-23 8 -68 8h-115v187h847q184 0 288 -32q202 -62 325 -234q112 -158 112 -403q0 -265 -129 -438q-136 -183 -383 -235q-113 -23 -266 -23h-794zM369 1772h311l173 -145l191 145h179 l-279 -287h-292zM688 186h135q111 0 176 29q111 50 159 189q31 88 31 282q0 214 -38 311q-51 132 -164 166q-55 16 -167 16h-132v-993z" />
<glyph unicode="&#xd0;" horiz-adv-x="1708" vert-adv-y="2458" d="M68 0v187h112q71 0 89 25q12 17 15 61q0 11 2 105v239h-218v184h218v185q-2 115 -6 138q-5 36 -32 46q-23 8 -68 8h-112v187h847q185 0 289 -32q200 -62 324 -235q112 -157 112 -401q0 -266 -129 -438q-137 -183 -384 -235q-111 -24 -266 -24h-793zM686 187h138 q111 0 175 29q112 50 159 188q31 89 31 282q0 213 -38 311q-51 132 -163 165q-54 16 -167 16h-135v-377h278v-184h-278v-430z" />
<glyph unicode="&#xd1;" horiz-adv-x="1768" vert-adv-y="2458" d="M68 0v187h115q71 0 89 24q12 18 15 62q0 11 2 105v608q-2 115 -5 138q-6 36 -33 46q-23 8 -68 8h-115v187h686l520 -944v565q-2 115 -5 138q-6 36 -33 46q-23 8 -68 8h-126v187h685v-187h-115q-71 0 -89 -25q-12 -17 -15 -61q0 -11 -2 -106v-986h-442l-543 994v-616 q2 -115 5 -137q6 -36 33 -46q23 -8 69 -8h127v-187h-687zM742 1484l209 288h306q55 0 67 -14q9 -11 9 -26q0 -31 -28 -45l-411 -203h-152z" />
<glyph unicode="&#xd2;" horiz-adv-x="1768" vert-adv-y="2458" d="M68 0v187h115q71 0 89 24q12 18 15 62q0 11 2 105v608q-2 115 -5 138q-6 36 -33 46q-23 8 -68 8h-115v187h686l520 -944v565q-2 115 -5 138q-6 36 -33 46q-23 8 -68 8h-126v187h685v-187h-115q-71 0 -89 -25q-12 -17 -15 -61q0 -11 -2 -106v-986h-442l-543 994v-616 q2 -115 5 -137q6 -36 33 -46q23 -8 69 -8h127v-187h-687zM470 1772h311l173 -145l191 145h179l-279 -287h-292z" />
<glyph unicode="&#xd3;" horiz-adv-x="1607" vert-adv-y="2458" d="M68 680q0 256 124 437q190 278 611 278q287 0 467 -123q136 -94 202 -250q67 -157 67 -348q0 -236 -111 -409q-114 -176 -329 -250q-130 -45 -286 -45q-306 0 -505 155q-112 87 -170 218q-70 156 -70 337zM519 672q0 -268 60 -383q73 -137 225 -137q171 0 237 162 q47 118 47 363q0 267 -59 384q-70 139 -218 139q-158 0 -229 -140q-63 -123 -63 -388zM649 1484l210 288h306q54 0 66 -14q9 -11 9 -27q0 -31 -28 -45l-411 -202h-152z" />
<glyph unicode="&#xd4;" horiz-adv-x="1607" vert-adv-y="2458" d="M68 680q0 256 124 437q190 278 611 278q287 0 467 -123q136 -94 202 -250q67 -157 67 -348q0 -236 -111 -409q-114 -176 -329 -250q-130 -45 -286 -45q-306 0 -505 155q-112 87 -170 218q-70 156 -70 337zM390 1485l279 287h292l283 -287h-311l-173 145l-190 -145h-180z M519 672q0 -268 60 -383q73 -137 225 -137q171 0 237 162q47 118 47 363q0 267 -59 384q-70 139 -218 139q-158 0 -229 -140q-63 -123 -63 -388z" />
<glyph unicode="&#xd5;" horiz-adv-x="1607" vert-adv-y="2458" d="M68 680q0 256 124 437q190 278 611 278q287 0 467 -123q136 -94 202 -250q67 -157 67 -348q0 -236 -111 -409q-114 -176 -329 -250q-130 -45 -286 -45q-306 0 -505 155q-112 87 -170 218q-70 156 -70 337zM461 1484l202 288h238q54 0 66 -14q10 -11 10 -26q0 -29 -29 -46 l-349 -202h-138zM519 672q0 -268 60 -383q73 -137 225 -137q171 0 237 162q47 118 47 363q0 267 -59 384q-70 139 -218 139q-158 0 -229 -140q-63 -123 -63 -388zM905 1484l202 288h238q53 0 66 -14q9 -11 9 -26q0 -29 -28 -46l-349 -202h-138z" />
<glyph unicode="&#xd6;" horiz-adv-x="1607" vert-adv-y="2458" d="M68 680q0 256 124 437q190 278 611 278q287 0 467 -123q136 -94 202 -250q67 -157 67 -348q0 -236 -111 -409q-114 -176 -329 -250q-130 -45 -286 -45q-306 0 -505 155q-112 87 -170 218q-70 156 -70 337zM413 1630q0 63 49 108q42 38 101 38q63 0 107 -49q38 -42 38 -98 q0 -66 -49 -110q-42 -38 -98 -38q-66 0 -110 49q-38 42 -38 100zM519 672q0 -268 60 -383q73 -137 225 -137q171 0 237 162q47 118 47 363q0 267 -59 384q-70 139 -218 139q-158 0 -229 -140q-63 -123 -63 -388zM898 1630q0 63 49 108q41 38 101 38q62 0 107 -49 q38 -42 38 -98q0 -66 -49 -110q-42 -38 -99 -38q-65 0 -109 49q-38 42 -38 100z" />
<glyph unicode="&#xd8;" horiz-adv-x="1652" vert-adv-y="2458" d="M68 0v187h115q71 0 89 24q12 18 15 62q0 11 2 105v608q-2 115 -6 138q-5 36 -32 46q-23 8 -68 8h-115v187h913q167 0 228 -14q146 -32 219 -138q55 -79 55 -177q0 -121 -77 -208q-59 -67 -154 -93q-34 -10 -106 -21q135 -20 188 -63q48 -38 64 -100q11 -45 11 -117v-142 q0 -82 19 -103q15 -16 38 -16q36 0 48 34q9 25 11 175h131q5 -72 5 -103q0 -141 -76 -221q-85 -88 -237 -88q-121 0 -205 52q-138 86 -138 352l2 134q0 75 -47 99q-27 13 -102 13h-170v-242q2 -115 5 -137q6 -36 33 -46q22 -8 68 -8h115v-187h-841zM338 1772h310l173 -145 l191 145h180l-280 -287h-292zM688 796l140 -1q100 0 137 10q58 17 86 70q25 49 25 114q0 118 -69 161q-48 29 -152 29h-167v-383z" />
<glyph unicode="&#xd9;" horiz-adv-x="1652" vert-adv-y="2458" d="M34 1178v187h833v-187h-107q-71 0 -89 -25q-12 -17 -15 -61q0 -11 -2 -106v-477q0 -135 8 -174q34 -170 250 -170q148 0 207 80q28 38 38 103q8 50 8 161v477q-2 116 -5 138q-6 36 -33 46q-23 8 -68 8h-99v187h658v-187h-115q-71 0 -89 -25q-12 -17 -15 -61 q0 -11 -2 -106v-546q0 -139 -29 -210q-57 -137 -198 -205q-115 -55 -324 -55q-360 0 -501 163q-63 74 -81 173q-9 50 -9 134v546q-2 116 -5 138q-6 36 -33 46q-23 8 -68 8h-115zM658 1657q0 87 67 148q57 52 138 52q85 0 146 -67q52 -57 52 -134q0 -90 -67 -150 q-57 -52 -134 -52q-90 0 -150 67q-52 57 -52 136zM786 1656q0 -33 25 -56q21 -19 49 -19q33 0 55 25q19 21 19 49q0 32 -25 55q-21 19 -48 19q-33 0 -56 -25q-19 -21 -19 -48z" />
<glyph unicode="&#xda;" horiz-adv-x="1652" vert-adv-y="2458" d="M34 1178v187h833v-187h-107q-71 0 -89 -25q-12 -17 -15 -61q0 -11 -2 -106v-477q0 -135 8 -174q34 -170 250 -170q148 0 207 80q28 38 38 103q8 50 8 161v477q-2 116 -5 138q-6 36 -33 46q-23 8 -68 8h-99v187h658v-187h-115q-71 0 -89 -25q-12 -17 -15 -61 q0 -11 -2 -106v-546q0 -139 -29 -210q-57 -137 -198 -205q-115 -55 -324 -55q-360 0 -501 163q-63 74 -81 173q-9 50 -9 134v546q-2 116 -5 138q-6 36 -33 46q-23 8 -68 8h-115zM688 1484l210 288h306q54 0 66 -14q9 -11 9 -27q0 -31 -28 -45l-411 -202h-152z" />
<glyph unicode="&#xdb;" horiz-adv-x="1652" vert-adv-y="2458" d="M34 1178v187h833v-187h-107q-71 0 -89 -25q-12 -17 -15 -61q0 -11 -2 -106v-477q0 -135 8 -174q34 -170 250 -170q148 0 207 80q28 38 38 103q8 50 8 161v477q-2 116 -5 138q-6 36 -33 46q-23 8 -68 8h-99v187h658v-187h-115q-71 0 -89 -25q-12 -17 -15 -61 q0 -11 -2 -106v-546q0 -139 -29 -210q-57 -137 -198 -205q-115 -55 -324 -55q-360 0 -501 163q-63 74 -81 173q-9 50 -9 134v546q-2 116 -5 138q-6 36 -33 46q-23 8 -68 8h-115zM504 1484l202 288h238q54 0 67 -14q9 -11 9 -26q0 -29 -29 -46l-349 -202h-138zM948 1484 l202 288h238q54 0 66 -14q10 -11 10 -26q0 -29 -29 -46l-349 -202h-138z" />
<glyph unicode="&#xdc;" horiz-adv-x="1652" vert-adv-y="2458" d="M34 1178v187h833v-187h-107q-71 0 -89 -25q-12 -17 -15 -61q0 -11 -2 -106v-477q0 -135 8 -174q34 -170 250 -170q148 0 207 80q28 38 38 103q8 50 8 161v477q-2 116 -5 138q-6 36 -33 46q-23 8 -68 8h-99v187h658v-187h-115q-71 0 -89 -25q-12 -17 -15 -61 q0 -11 -2 -106v-546q0 -139 -29 -210q-57 -137 -198 -205q-115 -55 -324 -55q-360 0 -501 163q-63 74 -81 173q-9 50 -9 134v546q-2 116 -5 138q-6 36 -33 46q-23 8 -68 8h-115zM470 1630q0 63 49 108q42 38 101 38q63 0 107 -49q38 -42 38 -98q0 -66 -49 -110 q-42 -38 -98 -38q-66 0 -110 49q-38 42 -38 100zM955 1630q0 63 49 108q41 38 101 38q63 0 107 -49q38 -42 38 -98q0 -66 -49 -110q-42 -38 -99 -38q-65 0 -109 49q-38 42 -38 100z" />
<glyph unicode="&#xdd;" horiz-adv-x="1448" vert-adv-y="2458" d="M-28 1179v186h811v-186h-86q-73 0 -73 -34q0 -14 23 -56l175 -317l180 317q25 44 25 59q0 31 -64 31h-87v186h603v-186h-77q-64 0 -100 -47q-5 -6 -81 -119l-308 -479v-155q2 -117 5 -138q6 -36 33 -46q22 -8 68 -8h134v-187h-859v187h134q72 0 89 24q13 18 16 62 q0 11 2 106v155l-301 479q-69 115 -90 135q-34 31 -94 31h-78zM594 1484l209 288h306q54 0 66 -14q9 -11 9 -26q0 -32 -28 -45l-411 -203h-151z" />
<glyph unicode="&#xde;" horiz-adv-x="1356" vert-adv-y="2458" d="M-12 833v532h1380v-532h-220q1 35 1 48q0 139 -52 214q-59 85 -177 85q-18 0 -43 -1v-800q2 -117 5 -138q6 -36 33 -46q22 -8 68 -8h115v-187h-849v187h115q71 0 88 25q13 18 16 61q0 11 2 106v800q-95 -1 -146 -31q-81 -48 -107 -160q-14 -59 -16 -155h-213zM501 -241 q0 63 53 100q45 32 116 32q87 0 139 -51q47 -46 47 -127q0 -104 -78 -164q-76 -59 -180 -59q-14 0 -43 2v69h25q125 0 139 98q-51 -23 -88 -23q-62 0 -99 42q-31 35 -31 81z" />
<glyph unicode="&#xdf;" horiz-adv-x="1378" vert-adv-y="2458" d="M34 0v177h54q65 0 79 15q14 14 16 57q0 15 1 117v602q0 144 21 200q81 216 509 216q249 0 368 -81q111 -76 111 -206q0 -146 -132 -220q-41 -23 -121 -41q109 -24 173 -64q176 -109 176 -356q0 -161 -75 -285q-55 -93 -163 -134q-69 -27 -154 -27q-172 0 -239 99 q-46 67 -46 209q0 37 2 106h171q-2 -89 -2 -110q0 -88 24 -117q13 -18 38 -18t39 18q16 21 20 51q10 71 10 178q0 147 -12 201q-40 171 -239 171q-16 0 -49 -1v177q45 -6 74 -6q164 0 164 145q0 65 -42 103q-43 39 -115 39q-87 0 -126 -58q-23 -35 -28 -79q-6 -48 -6 -110 v-968h-501z" />
<glyph unicode="&#xe0;" horiz-adv-x="1003" vert-adv-y="2458" d="M68 0v177h75q64 0 79 14q14 14 16 57q0 16 1 118v202q-1 138 -5 152q-8 26 -29 32q-16 5 -62 5h-75v177h511v-177q48 94 82 134q61 73 161 73q109 0 164 -77q42 -58 42 -144q0 -101 -54 -153q-49 -48 -121 -48q-67 0 -111 42t-44 111q0 96 90 125q-26 7 -39 7 q-37 0 -76 -35q-66 -58 -84 -153q-10 -55 -10 -143v-130q1 -137 5 -152q8 -27 29 -32q16 -5 62 -5h69v-177h-676zM391 1065l114 326h237q46 0 59 -8q18 -12 18 -33q0 -19 -29 -46l-261 -239h-138z" />
<glyph unicode="&#xe1;" horiz-adv-x="1226" vert-adv-y="2458" d="M85 237q0 126 93 188q48 32 107 47q53 14 127 27q160 30 219 65q64 39 64 123q0 51 -27 82q-59 68 -192 68q-116 0 -183 -60q41 8 66 8q59 0 87 -39q22 -30 22 -71q0 -62 -45 -94q-45 -33 -107 -33q-83 0 -139 54q-45 43 -45 111q0 66 45 124q99 126 417 126 q194 0 288 -41q102 -44 140 -154q18 -51 18 -178v-324q0 -76 14 -95q11 -17 31 -17q21 0 33 15q20 24 20 111q0 25 -1 63h102q6 -100 6 -136q0 -112 -51 -164q-71 -73 -223 -73q-135 0 -211 56q-41 31 -59 108q-80 -164 -299 -164q-143 0 -224 62q-93 71 -93 205zM436 260 q0 -51 37 -81q29 -24 74 -24q68 0 108 49q34 41 34 106v164q-51 -45 -103 -68q-96 -43 -116 -65q-34 -36 -34 -81zM475 1065l114 326h238q46 0 58 -8q18 -12 18 -33q0 -19 -29 -46l-261 -239h-138z" />
<glyph unicode="&#xe2;" horiz-adv-x="1226" vert-adv-y="2458" d="M85 237q0 126 93 188q48 32 107 47q53 14 127 27q160 30 219 65q64 39 64 123q0 51 -27 82q-59 68 -192 68q-116 0 -183 -60q41 8 66 8q59 0 87 -39q22 -30 22 -71q0 -62 -45 -94q-45 -33 -107 -33q-83 0 -139 54q-45 43 -45 111q0 66 45 124q99 126 417 126 q194 0 288 -41q102 -44 140 -154q18 -51 18 -178v-324q0 -76 14 -95q11 -17 31 -17q21 0 33 15q20 24 20 111q0 25 -1 63h102q6 -100 6 -136q0 -112 -51 -164q-71 -73 -223 -73q-135 0 -211 56q-41 31 -59 108q-80 -164 -299 -164q-143 0 -224 62q-93 71 -93 205zM261 1065 l215 326h263l226 -326h-288l-110 165l-147 -165h-159zM436 260q0 -51 37 -81q29 -24 74 -24q68 0 108 49q34 41 34 106v164q-51 -45 -103 -68q-96 -43 -116 -65q-34 -36 -34 -81z" />
<glyph unicode="&#xe3;" horiz-adv-x="1226" vert-adv-y="2458" d="M85 237q0 126 93 188q48 32 107 47q53 14 127 27q160 30 219 65q64 39 64 123q0 51 -27 82q-59 68 -192 68q-116 0 -183 -60q41 8 66 8q59 0 87 -39q22 -30 22 -71q0 -62 -45 -94q-45 -33 -107 -33q-83 0 -139 54q-45 43 -45 111q0 66 45 124q99 126 417 126 q194 0 288 -41q102 -44 140 -154q18 -51 18 -178v-324q0 -76 14 -95q11 -17 31 -17q21 0 33 15q20 24 20 111q0 25 -1 63h102q6 -100 6 -136q0 -112 -51 -164q-71 -73 -223 -73q-135 0 -211 56q-41 31 -59 108q-80 -164 -299 -164q-143 0 -224 62q-93 71 -93 205zM271 1387 h142q19 -60 46 -86q50 -47 150 -47q102 0 149 54q21 24 41 79h142q-12 -136 -82 -219q-90 -105 -252 -105q-172 0 -266 120q-58 74 -70 204zM436 260q0 -51 37 -81q29 -24 74 -24q68 0 108 49q34 41 34 106v164q-51 -45 -103 -68q-96 -43 -116 -65q-34 -36 -34 -81z" />
<glyph unicode="&#xe4;" horiz-adv-x="1226" vert-adv-y="2458" d="M85 237q0 126 93 188q48 32 107 47q53 14 127 27q160 30 219 65q64 39 64 123q0 51 -27 82q-59 68 -192 68q-116 0 -183 -60q41 8 66 8q59 0 87 -39q22 -30 22 -71q0 -62 -45 -94q-45 -33 -107 -33q-83 0 -139 54q-45 43 -45 111q0 66 45 124q99 126 417 126 q194 0 288 -41q102 -44 140 -154q18 -51 18 -178v-324q0 -76 14 -95q11 -17 31 -17q21 0 33 15q20 24 20 111q0 25 -1 63h102q6 -100 6 -136q0 -112 -51 -164q-71 -73 -223 -73q-135 0 -211 56q-41 31 -59 108q-80 -164 -299 -164q-143 0 -224 62q-93 71 -93 205zM252 1223 q0 63 49 108q42 38 101 38q62 0 107 -49q38 -42 38 -98q0 -66 -49 -110q-42 -38 -99 -38q-65 0 -109 49q-38 42 -38 100zM436 260q0 -51 37 -81q29 -24 74 -24q68 0 108 49q34 41 34 106v164q-51 -45 -103 -68q-96 -43 -116 -65q-34 -36 -34 -81zM665 1223q0 63 49 108 q42 38 101 38q62 0 107 -49q38 -42 38 -98q0 -66 -49 -110q-42 -38 -99 -38q-65 0 -109 49q-38 42 -38 100z" />
<glyph unicode="&#xe5;" horiz-adv-x="751" vert-adv-y="2458" d="M55 0v177h69q65 0 79 14q14 15 16 57q0 16 1 118v634q-1 137 -5 152q-7 26 -29 32q-16 5 -62 5h-69v176h516v-999q1 -138 5 -152q8 -27 29 -32q18 -5 63 -5h63v-177h-676zM184 1484l209 288h272q54 0 66 -14q9 -11 9 -26q0 -30 -28 -45l-377 -203h-151z" />
<glyph unicode="&#xe6;" horiz-adv-x="1092" vert-adv-y="2458" d="M67 473q0 265 189 397q132 93 321 93q146 0 264 -60q99 -50 149 -155q27 -55 27 -118q0 -104 -71 -165q-55 -48 -133 -48q-84 0 -136 54q-43 45 -43 108q0 72 53 116q36 30 76 30q13 0 37 -5q-63 58 -142 58q-215 0 -215 -321q0 -127 42 -211q45 -92 154 -92 q151 0 161 202h213q-17 -142 -75 -230q-103 -156 -348 -156q-211 0 -343 100q-96 72 -142 196q-38 100 -38 207zM436 1065l113 326h238q46 0 58 -8q18 -12 18 -33q0 -19 -29 -46l-260 -239h-138z" />
<glyph unicode="&#xe7;" horiz-adv-x="1092" vert-adv-y="2458" d="M67 473q0 265 189 397q132 93 321 93q146 0 264 -60q99 -50 149 -155q27 -55 27 -118q0 -104 -71 -165q-55 -48 -133 -48q-84 0 -136 54q-43 45 -43 108q0 72 53 116q36 30 76 30q13 0 37 -5q-63 58 -142 58q-215 0 -215 -321q0 -127 42 -211q45 -92 154 -92 q151 0 161 202h213q-26 -222 -158 -316q-88 -64 -236 -69l-70 -87q6 1 10 1q29 2 38 2q62 0 109 -21q26 -12 46 -38q28 -37 28 -81q0 -58 -46 -109q-69 -76 -209 -76q-105 0 -222 49l42 86q86 -34 140 -34q35 0 59 19q23 19 23 56q0 34 -26 55q-19 15 -44 15q-27 0 -61 -21 l-49 50l102 140q-58 7 -102 22q-137 45 -214 145q-106 136 -106 329z" />
<glyph unicode="&#xe8;" horiz-adv-x="1092" vert-adv-y="2458" d="M67 473q0 265 189 397q132 93 321 93q146 0 264 -60q99 -50 149 -155q27 -55 27 -118q0 -104 -71 -165q-55 -48 -133 -48q-84 0 -136 54q-43 45 -43 108q0 72 53 116q36 30 76 30q13 0 37 -5q-63 58 -142 58q-215 0 -215 -321q0 -127 42 -211q45 -92 154 -92 q151 0 161 202h213q-17 -142 -75 -230q-103 -156 -348 -156q-211 0 -343 100q-96 72 -142 196q-38 100 -38 207zM214 1391h288l110 -165l147 165h159l-215 -326h-263z" />
<glyph unicode="&#xe9;" horiz-adv-x="1130" vert-adv-y="2458" d="M68 473q0 153 77 275q136 216 420 216q490 0 497 -548h-629q-3 -261 186 -261q154 0 174 169h252q-31 -122 -101 -201q-134 -153 -374 -153q-209 0 -335 114q-86 78 -131 193q-36 95 -36 196zM435 573h282q-5 97 -23 138q-30 68 -113 68q-82 0 -117 -75q-21 -45 -29 -131 zM445 1065l114 326h238q46 0 58 -8q18 -12 18 -33q0 -19 -29 -46l-261 -239h-138z" />
<glyph unicode="&#xea;" horiz-adv-x="1130" vert-adv-y="2458" d="M68 474q0 152 77 274q136 216 420 216q490 0 497 -548h-629v-35q0 -118 61 -178q50 -49 126 -49q153 0 174 170h251q-42 -168 -198 -300q-61 -52 -77 -77q-23 -38 -23 -79q0 -86 84 -86q22 0 62 8v-158q-76 -17 -124 -17q-115 0 -180 56q-55 48 -55 134q0 51 22 91 q21 39 85 78q-69 -6 -87 -6q-64 0 -155 27q-126 36 -207 132q-124 147 -124 347zM436 573h281q-5 97 -23 138q-30 68 -112 68q-83 0 -118 -75q-21 -45 -28 -131z" />
<glyph unicode="&#xeb;" horiz-adv-x="1130" vert-adv-y="2458" d="M68 473q0 153 77 275q136 216 420 216q490 0 497 -548h-629q-3 -261 186 -261q154 0 174 169h252q-31 -122 -101 -201q-134 -153 -374 -153q-209 0 -335 114q-86 78 -131 193q-36 95 -36 196zM211 1223q0 63 49 108q42 38 101 38q62 0 107 -49q38 -42 38 -98 q0 -66 -49 -110q-42 -38 -98 -38q-66 0 -110 49q-38 42 -38 100zM435 573h282q-5 97 -23 138q-30 68 -113 68q-82 0 -117 -75q-21 -45 -29 -131zM624 1223q0 63 49 108q42 38 101 38q62 0 107 -49q38 -42 38 -98q0 -66 -49 -110q-42 -38 -98 -38q-66 0 -110 49 q-38 42 -38 100z" />
<glyph unicode="&#xec;" horiz-adv-x="1130" vert-adv-y="2458" d="M68 473q0 153 77 275q136 216 420 216q490 0 497 -548h-629q-3 -261 186 -261q154 0 174 169h252q-31 -122 -101 -201q-134 -153 -374 -153q-209 0 -335 114q-86 78 -131 193q-36 95 -36 196zM213 1391h287l110 -165l147 165h160l-215 -326h-264zM435 573h282 q-5 97 -23 138q-30 68 -113 68q-82 0 -117 -75q-21 -45 -29 -131z" />
<glyph unicode="&#xed;" horiz-adv-x="749" vert-adv-y="2458" d="M68 0v177h69q68 0 82 18q12 15 13 64q0 10 1 107v202q-1 138 -5 152q-7 26 -29 32q-18 5 -62 5h-69v177h516v-568q1 -137 5 -152q7 -26 28 -32q18 -5 61 -5h64v-177h-674zM251 1065l113 326h238q46 0 58 -8q18 -12 18 -33q0 -19 -29 -46l-260 -239h-138z" />
<glyph unicode="&#xee;" horiz-adv-x="750" vert-adv-y="2458" d="M37 1065l208 326h250l213 -326h-279l-99 165l-136 -165h-157zM69 0v177h69q68 0 82 18q12 15 13 64q0 10 1 107v202q-1 138 -5 152q-7 26 -29 32q-18 5 -62 5h-69v177h516v-568q1 -136 5 -152q7 -26 28 -32q18 -5 61 -5h64v-177h-674z" />
<glyph unicode="&#xef;" horiz-adv-x="1576" vert-adv-y="2458" d="M68 466q0 166 62 303q48 107 149 157q74 37 171 37q129 0 217 -68q40 -31 93 -106v211q-1 138 -5 152q-7 26 -29 32q-18 5 -61 5h-74v176h520v-1004q1 -137 5 -151q7 -27 27 -32q18 -5 60 -5h66v-173h-509v147q-46 -94 -100 -130q-73 -47 -183 -47q-177 0 -288 118 q-67 70 -99 196q-22 87 -22 182zM434 452q0 -129 36 -209q41 -89 123 -89q95 0 135 106q36 98 36 218q0 125 -39 208q-43 92 -128 92q-81 0 -123 -88q-40 -87 -40 -238zM1200 1263q0 63 53 100q45 32 112 32q86 0 136 -52q48 -48 48 -131q0 -102 -78 -164q-74 -59 -174 -59 q-19 0 -49 2v69h25q53 0 92 21q42 22 54 86q-49 -26 -89 -26q-63 0 -99 41q-31 35 -31 81z" />
<glyph unicode="&#xf0;" horiz-adv-x="1290" vert-adv-y="2458" d="M68 432q0 156 62 283q48 99 149 146q73 34 169 34q132 0 219 -67q40 -32 93 -107v218h-218v157h218q-2 70 -23 84q-16 9 -73 9h-73v176h513v-273h165v-157h-165v-573q1 -138 5 -152q8 -27 29 -32q18 -5 62 -5h69v-173h-509v147q-46 -94 -100 -130q-73 -47 -185 -47 q-173 0 -285 109q-68 67 -100 183q-22 81 -22 170zM434 417q0 -116 36 -187q41 -80 123 -80q95 0 135 96q36 86 36 195q0 113 -39 188q-43 83 -128 83q-81 0 -123 -80q-40 -78 -40 -215z" />
<glyph unicode="&#xf1;" horiz-adv-x="1377" vert-adv-y="2458" d="M68 0v177h64q65 0 79 14t16 57q0 16 1 118v202q-1 137 -5 152q-8 27 -29 32q-17 5 -62 5h-64v177h505v-135q62 86 117 118q80 47 212 47q207 0 278 -109q36 -56 40 -139q2 -46 2 -132v-218q1 -138 5 -152q7 -27 29 -32q16 -5 62 -5h53v-177h-608v177h10q64 0 78 14t16 57 q0 16 1 118v215q0 94 -20 132q-35 67 -120 67q-84 0 -122 -63q-33 -52 -33 -136v-215q1 -137 5 -152q7 -27 29 -32q17 -5 62 -5h15v-177h-616zM544 1065l114 326h238q45 0 58 -8q18 -12 18 -33q0 -19 -29 -46l-261 -239h-138z" />
<glyph unicode="&#xf2;" horiz-adv-x="1377" vert-adv-y="2458" d="M68 0v177h64q65 0 79 14t16 57q0 16 1 118v202q-1 137 -5 152q-8 27 -29 32q-17 5 -62 5h-64v177h505v-135q62 86 117 118q80 47 212 47q207 0 278 -109q36 -56 40 -139q2 -46 2 -132v-218q1 -138 5 -152q7 -27 29 -32q16 -5 62 -5h53v-177h-608v177h10q64 0 78 14t16 57 q0 16 1 118v215q0 94 -20 132q-35 67 -120 67q-84 0 -122 -63q-33 -52 -33 -136v-215q1 -137 5 -152q7 -27 29 -32q17 -5 62 -5h15v-177h-616zM337 1391h287l110 -165l147 165h159l-215 -326h-263z" />
<glyph unicode="&#xf3;" horiz-adv-x="1211" vert-adv-y="2458" d="M68 465q0 243 158 377q143 121 377 121q266 0 414 -155q126 -132 126 -341q0 -173 -98 -302q-148 -195 -441 -195q-163 0 -269 53q-146 72 -217 213q-50 100 -50 229zM443 460q0 -154 33 -236q34 -85 126 -85q93 0 129 88q37 90 37 264q0 145 -30 218q-35 85 -126 85 q-86 0 -123 -74q-46 -91 -46 -260zM481 1065l114 326h238q46 0 58 -8q18 -12 18 -33q0 -19 -29 -46l-261 -239h-138z" />
<glyph unicode="&#xf4;" horiz-adv-x="1211" vert-adv-y="2458" d="M68 465q0 243 158 377q143 121 377 121q266 0 414 -155q126 -132 126 -341q0 -173 -98 -302q-148 -195 -441 -195q-163 0 -269 53q-146 72 -217 213q-50 100 -50 229zM274 1065l215 326h263l226 -326h-288l-110 165l-147 -165h-159zM443 460q0 -154 33 -236 q34 -85 126 -85q93 0 129 88q37 90 37 264q0 145 -30 218q-35 85 -126 85q-86 0 -123 -74q-46 -91 -46 -260z" />
<glyph unicode="&#xf5;" horiz-adv-x="1211" vert-adv-y="2458" d="M68 465q0 243 158 377q143 121 377 121q266 0 414 -155q126 -132 126 -341q0 -173 -98 -302q-148 -195 -441 -195q-163 0 -269 53q-146 72 -217 213q-50 100 -50 229zM262 1091q8 98 32 151q51 109 170 109q71 0 190 -40q85 -29 123 -29q32 0 48 10q13 9 22 56h129 q-10 -119 -39 -172q-48 -88 -173 -88q-80 0 -204 47q-69 26 -101 26q-31 0 -48 -15q-15 -13 -20 -55h-129zM443 460q0 -154 33 -236q34 -85 126 -85q93 0 129 88q37 90 37 264q0 145 -30 218q-35 85 -126 85q-86 0 -123 -74q-46 -91 -46 -260z" />
<glyph unicode="&#xf6;" horiz-adv-x="1211" vert-adv-y="2458" d="M68 465q0 243 158 377q143 121 377 121q266 0 414 -155q126 -132 126 -341q0 -173 -98 -302q-148 -195 -441 -195q-163 0 -269 53q-146 72 -217 213q-50 100 -50 229zM251 1223q0 63 49 108q42 38 101 38q62 0 107 -49q38 -42 38 -98q0 -66 -49 -110q-42 -38 -98 -38 q-66 0 -110 49q-38 42 -38 100zM443 460q0 -154 33 -236q34 -85 126 -85q93 0 129 88q37 90 37 264q0 145 -30 218q-35 85 -126 85q-86 0 -123 -74q-46 -91 -46 -260zM665 1223q0 63 49 108q42 38 101 38q63 0 107 -49q38 -42 38 -98q0 -66 -49 -110q-42 -38 -98 -38 q-66 0 -110 49q-38 42 -38 100z" />
<glyph unicode="&#xf7;" horiz-adv-x="1025" vert-adv-y="2458" d="M14 576v242h997v-242h-997zM362 346q0 65 45 109q45 42 107 42q60 0 103 -42q46 -44 46 -109q0 -61 -44 -106q-45 -44 -107 -44q-61 0 -106 45q-44 44 -44 105zM362 1045q0 65 45 109q45 42 107 42q60 0 103 -42q46 -45 46 -109q0 -61 -44 -106q-45 -44 -107 -44t-106 45 q-44 44 -44 105z" />
<glyph unicode="&#xf8;" horiz-adv-x="1003" vert-adv-y="2458" d="M68 0v177h75q64 0 79 14q14 14 16 57q0 16 1 118v202q-1 138 -5 152q-8 26 -29 32q-16 5 -62 5h-75v177h511v-177q48 94 82 134q61 73 161 73q109 0 164 -77q42 -58 42 -144q0 -101 -54 -153q-49 -48 -121 -48q-67 0 -111 42t-44 111q0 96 90 125q-26 7 -39 7 q-37 0 -76 -35q-66 -58 -84 -153q-10 -55 -10 -143v-130q1 -137 5 -152q8 -27 29 -32q16 -5 62 -5h69v-177h-676zM156 1391h287l111 -165l147 165h159l-215 -326h-264z" />
<glyph unicode="&#xf9;" horiz-adv-x="1316" vert-adv-y="2458" d="M7 757v177h496v-580q0 -120 29 -161q33 -45 105 -45q162 0 162 206v214q-1 137 -5 152q-7 26 -29 32q-18 5 -62 5h-75v177h514v-568q1 -137 5 -152q7 -26 29 -32q18 -5 62 -5h72v-177h-511v136q-91 -167 -319 -167q-184 0 -260 93q-53 63 -58 150q-2 39 -2 132v224 q-1 138 -5 152q-8 27 -29 32q-19 5 -62 5h-57zM431 1245q0 87 67 148q57 52 138 52q85 0 146 -67q52 -57 52 -134q0 -90 -67 -150q-57 -52 -134 -52q-90 0 -150 67q-52 57 -52 136zM559 1244q0 -34 25 -56q21 -19 49 -19q32 0 55 25q19 21 19 49q0 32 -25 55q-21 19 -48 19 q-34 0 -56 -25q-19 -21 -19 -48z" />
<glyph unicode="&#xfa;" horiz-adv-x="1316" vert-adv-y="2458" d="M7 757v177h496v-580q0 -120 29 -161q33 -45 105 -45q162 0 162 206v214q-1 137 -5 152q-7 26 -29 32q-18 5 -62 5h-75v177h514v-568q1 -137 5 -152q7 -26 29 -32q18 -5 62 -5h72v-177h-511v136q-91 -167 -319 -167q-184 0 -260 93q-53 63 -58 150q-2 39 -2 132v224 q-1 138 -5 152q-8 27 -29 32q-19 5 -62 5h-57zM500 1065l114 326h238q45 0 58 -8q18 -12 18 -33q0 -19 -29 -46l-261 -239h-138z" />
<glyph unicode="&#xfb;" horiz-adv-x="1316" vert-adv-y="2458" d="M7 757v177h496v-580q0 -120 29 -161q33 -45 105 -45q162 0 162 206v214q-1 137 -5 152q-7 26 -29 32q-18 5 -62 5h-75v177h514v-568q1 -137 5 -152q7 -26 29 -32q18 -5 62 -5h72v-177h-511v136q-91 -167 -319 -167q-184 0 -260 93q-53 63 -58 150q-2 39 -2 132v224 q-1 138 -5 152q-8 27 -29 32q-19 5 -62 5h-57zM343 1065l114 326h197q46 0 58 -8q18 -12 18 -33q0 -17 -29 -46l-247 -239h-111zM712 1065l114 326h196q46 0 59 -8q18 -12 18 -33q0 -17 -29 -46l-247 -239h-111z" />
<glyph unicode="&#xfc;" horiz-adv-x="1316" vert-adv-y="2458" d="M7 757v177h496v-580q0 -120 29 -161q33 -45 105 -45q162 0 162 206v214q-1 137 -5 152q-7 26 -29 32q-18 5 -62 5h-75v177h514v-568q1 -137 5 -152q7 -26 29 -32q18 -5 62 -5h72v-177h-511v136q-91 -167 -319 -167q-184 0 -260 93q-53 63 -58 150q-2 39 -2 132v224 q-1 138 -5 152q-8 27 -29 32q-19 5 -62 5h-57zM277 1223q0 63 49 108q42 38 101 38q63 0 107 -49q38 -42 38 -98q0 -66 -49 -110q-42 -38 -98 -38q-66 0 -110 49q-38 42 -38 100zM690 1223q0 63 49 108q42 38 101 38q62 0 107 -49q38 -42 38 -98q0 -66 -49 -110 q-42 -38 -98 -38q-66 0 -110 49q-38 42 -38 100z" />
<glyph unicode="&#xfd;" horiz-adv-x="1222" vert-adv-y="2458" d="M-1 757v177h689v-177h-76q-35 0 -47 -6q-13 -6 -13 -23q0 -10 16 -49l148 -372l160 372q13 29 13 46q0 32 -58 32h-74v177h474v-177h-56q-50 0 -76 -35q-19 -26 -51 -96l-318 -705q-100 -222 -194 -292q-96 -72 -236 -72q-145 0 -222 77q-68 67 -68 169q0 104 66 161 q53 46 125 46q73 0 122 -45q43 -40 43 -109q0 -83 -59 -121q-30 -20 -71 -20q-12 0 -32 1q44 -32 89 -32q81 0 145 82q46 60 91 155l-323 705q-40 83 -53 99q-24 32 -78 32h-76zM507 1065l114 326h238q45 0 58 -8q18 -12 18 -33q0 -19 -29 -46l-261 -239h-138z" />
<glyph unicode="&#xfe;" horiz-adv-x="952" vert-adv-y="2458" d="M38 757v165q144 12 217 101q77 96 80 293h240v-382h245v-177h-245v-408q0 -95 10 -142q13 -53 66 -53q48 0 66 51q12 35 12 124q0 32 -2 131h175v-99q1 -151 -21 -210q-66 -181 -302 -181q-190 0 -283 102q-55 59 -65 141q-7 56 -7 136v408h-186zM350 -234q0 63 53 100 q45 32 112 32q86 0 136 -52q48 -48 48 -128q0 -100 -78 -162q-74 -59 -174 -59q-20 0 -49 2v69h25q53 0 92 21q40 21 54 81q-49 -27 -89 -27q-62 0 -99 42q-31 34 -31 81z" />
<glyph unicode="&#xff;" vert-adv-y="2458" d="M359 1223q0 66 51 112q44 40 105 40q65 0 111 -51q40 -44 40 -102q0 -68 -51 -114q-44 -40 -102 -40q-68 0 -114 51q-40 44 -40 104z" />
<glyph unicode="&#x152;" horiz-adv-x="1414" vert-adv-y="2458" d="M82 0v528h207q20 -107 60 -164q80 -113 226 -166q90 -33 189 -33q119 0 177 53q44 40 44 97q0 81 -80 127q-47 26 -176 50q-208 39 -311 74q-194 66 -269 171q-66 93 -66 225q0 134 72 236q77 108 230 158q118 39 265 39q178 0 304 -55q57 -25 128 -84l38 109h183v-509 h-201q-19 152 -113 235q-110 97 -288 97q-98 0 -168 -33q-81 -39 -81 -117q0 -67 75 -103q49 -24 193 -50q232 -43 320 -76q319 -120 319 -406q0 -205 -150 -322q-88 -69 -196 -91q-95 -20 -205 -20q-197 0 -338 53q-65 24 -159 81l-39 -104h-190zM529 1484l209 288h306 q55 0 67 -14q9 -11 9 -27q0 -30 -29 -45l-411 -202h-151z" />
<glyph unicode="&#x153;" horiz-adv-x="1086" vert-adv-y="2458" d="M65 652q0 151 133 239q113 74 320 74q127 0 216 -37q36 -14 87 -45l19 51h143v-314h-162q-40 175 -262 175q-135 0 -135 -82q0 -18 12 -31q29 -32 142 -59q172 -43 246 -73q134 -53 176 -133q27 -52 27 -116q0 -106 -65 -191q-109 -141 -349 -141q-147 0 -261 49 q-40 18 -95 56l-19 -74h-162v340h162q30 -93 107 -141q94 -60 207 -60q133 0 133 76q0 19 -10 31q-24 30 -135 59q-177 47 -239 72q-236 93 -236 275zM405 1065l114 326h238q45 0 58 -8q18 -12 18 -33q0 -19 -29 -46l-261 -239h-138z" />
<glyph unicode="&#x178;" horiz-adv-x="1035" vert-adv-y="2458" d="M53 0v213l489 544h-141q-100 0 -126 -53q-16 -31 -20 -169h-179v399h904v-177l-510 -580h127q120 0 166 48q20 20 27 45q10 31 10 101v73h180v-444h-927zM408 1065l113 326h238q46 0 58 -8q18 -12 18 -33q0 -19 -29 -46l-260 -239h-138z" />
<glyph unicode="&#x2c7;" vert-adv-y="2458" d="M160 1391h287l110 -165l147 165h160l-215 -326h-264z" />
<glyph unicode="&#x2d8;" vert-adv-y="2458" d="M177 1387h143q18 -60 45 -86q50 -47 151 -47t149 54q21 24 40 79h143q-12 -136 -83 -219q-89 -105 -252 -105q-98 0 -179 46q-91 51 -132 153q-17 44 -25 125z" />
<glyph unicode="&#x2d9;" vert-adv-y="2458" d="M359 1223q0 66 51 112q44 40 105 40q65 0 111 -51q40 -44 40 -102q0 -68 -51 -114q-44 -40 -102 -40q-68 0 -114 51q-40 44 -40 104z" />
<glyph unicode="&#x2db;" vert-adv-y="2458" d="M706 -208q0 86 65 156q30 32 72 52h181q-105 -58 -105 -146q0 -86 84 -86q22 0 62 8v-158q-75 -17 -124 -17q-115 0 -180 56q-55 48 -55 135z" />
<glyph unicode="&#x2dd;" vert-adv-y="2458" d="M224 1065l114 326h196q46 0 59 -8q18 -12 18 -33q0 -17 -29 -46l-247 -239h-111zM593 1065l113 326h197q46 0 58 -8q18 -12 18 -33q0 -18 -29 -46l-247 -239h-110z" />
<glyph unicode="&#x2000;" horiz-adv-x="928" vert-adv-y="0" />
<glyph unicode="&#x2001;" horiz-adv-x="1857" vert-adv-y="0" />
<glyph unicode="&#x2002;" horiz-adv-x="928" vert-adv-y="0" />
<glyph unicode="&#x2003;" horiz-adv-x="1857" vert-adv-y="0" />
<glyph unicode="&#x2004;" horiz-adv-x="619" vert-adv-y="0" />
<glyph unicode="&#x2005;" horiz-adv-x="464" vert-adv-y="0" />
<glyph unicode="&#x2006;" horiz-adv-x="309" vert-adv-y="0" />
<glyph unicode="&#x2007;" horiz-adv-x="309" vert-adv-y="0" />
<glyph unicode="&#x2008;" horiz-adv-x="232" vert-adv-y="0" />
<glyph unicode="&#x2009;" horiz-adv-x="371" vert-adv-y="0" />
<glyph unicode="&#x200a;" horiz-adv-x="103" vert-adv-y="0" />
<glyph unicode="&#x2010;" horiz-adv-x="532" vert-adv-y="2458" d="M0 369v244h532v-244h-532z" />
<glyph unicode="&#x2011;" horiz-adv-x="532" vert-adv-y="2458" d="M0 369v244h532v-244h-532z" />
<glyph unicode="&#x2012;" horiz-adv-x="1215" vert-adv-y="2458" d="M69 369v244h1079v-244h-1079z" />
<glyph unicode="&#x2013;" horiz-adv-x="1215" vert-adv-y="2458" d="M69 369v244h1079v-244h-1079z" />
<glyph unicode="&#x2014;" horiz-adv-x="1570" vert-adv-y="2458" d="M0 369v244h1570v-244h-1570z" />
<glyph unicode="&#x2015;" horiz-adv-x="1570" vert-adv-y="2458" d="M0 369v244h1570v-244h-1570z" />
<glyph unicode="&#x2018;" horiz-adv-x="470" vert-adv-y="2458" d="M64 1068q0 166 137 258q72 48 191 68v-90q-62 -15 -98 -44q-44 -35 -68 -103q27 20 62 20q52 0 88 -36q44 -45 44 -112q0 -76 -59 -123q-51 -39 -115 -39q-92 0 -146 73q-36 50 -36 128z" />
<glyph unicode="&#x2019;" horiz-adv-x="470" vert-adv-y="2458" d="M62 1232q0 77 59 124q50 39 115 39q93 0 146 -74q36 -49 36 -127q0 -166 -137 -259q-72 -49 -191 -69v91q62 15 97 43q45 35 69 104q-27 -20 -62 -20q-52 0 -88 36q-44 45 -44 112z" />
<glyph unicode="&#x201a;" horiz-adv-x="470" vert-adv-y="2458" d="M62 128q0 77 59 124q50 39 115 39q93 0 146 -74q36 -49 36 -127q0 -167 -137 -259q-72 -49 -191 -69v90q62 16 97 44q45 35 69 103q-27 -20 -62 -20q-52 0 -88 36q-44 46 -44 113z" />
<glyph unicode="&#x201c;" horiz-adv-x="920" vert-adv-y="2458" d="M62 1069q0 165 137 257q71 48 190 68v-90q-61 -15 -97 -44q-44 -35 -69 -103q27 20 62 20q51 0 87 -36q45 -45 45 -111q0 -77 -59 -124q-50 -39 -114 -39q-93 0 -147 73q-35 49 -35 129zM512 1067q0 167 137 259q72 48 191 68v-90q-62 -15 -98 -44q-44 -35 -69 -103 q28 20 63 20q51 0 87 -36q45 -45 45 -112q0 -76 -59 -123q-50 -39 -115 -39q-93 0 -146 73q-36 50 -36 127z" />
<glyph unicode="&#x201d;" horiz-adv-x="920" vert-adv-y="2458" d="M62 1232q0 77 59 124q50 39 114 39q93 0 146 -74q36 -49 36 -127q0 -166 -137 -259q-71 -48 -190 -69v91q61 15 97 43q44 35 69 104q-28 -20 -63 -20q-51 0 -87 36q-44 45 -44 112zM511 1232q0 77 59 124q50 39 115 39q93 0 146 -74q36 -49 36 -128q0 -166 -137 -258 q-71 -48 -191 -69v91q61 15 97 43q44 35 69 104q-28 -20 -62 -20q-52 0 -88 36q-44 45 -44 112z" />
<glyph unicode="&#x201e;" horiz-adv-x="920" vert-adv-y="2458" d="M62 129q0 76 59 123q50 39 114 39q93 0 146 -74q36 -49 36 -127q0 -166 -137 -259q-71 -48 -190 -68v90q62 16 97 44q44 35 69 103q-28 -19 -62 -19q-52 0 -88 36q-44 45 -44 112zM511 128q0 77 59 124q50 39 115 39q93 0 146 -74q36 -49 36 -128q0 -165 -137 -258 q-71 -48 -191 -68v90q62 16 97 44q44 34 69 103q-28 -19 -62 -19q-52 0 -88 36q-44 45 -44 111z" />
<glyph unicode="&#x2020;" vert-adv-y="2458" d="M90 878q0 71 39 116q33 39 84 39q33 0 59 -13q12 -6 62 -36q47 -27 117 -44q-1 52 -8 84q-7 31 -35 92q-45 99 -45 154q0 123 149 123t149 -123q0 -55 -45 -154q-31 -69 -38 -106q-4 -25 -4 -70q70 17 116 44q51 30 62 36q26 13 59 13q59 0 94 -52q29 -44 29 -103 q0 -72 -42 -118q-35 -38 -90 -38q-36 0 -83 30q-68 42 -145 65q-1 -32 -1 -46q0 -71 22 -363q17 -214 66 -481q15 -81 15 -137q0 -101 -72 -145q-39 -24 -92 -24q-63 0 -106 35q-57 46 -57 135q0 55 15 136q49 273 68 519q19 258 19 330v41q-79 -23 -146 -65 q-47 -30 -83 -30q-64 0 -100 51q-32 44 -32 105z" />
<glyph unicode="&#x2021;" vert-adv-y="2458" d="M86 136q0 70 43 116q36 38 84 38q32 0 54 -12l86 -48q31 -18 95 -35q-3 93 -30 161q-30 72 -95 149q65 77 95 150q27 68 30 161q-47 -13 -73 -24q-12 -5 -108 -58q-22 -12 -54 -12q-57 0 -94 50q-33 44 -33 104q0 69 41 118q32 38 82 38q47 0 125 -47q54 -32 114 -46 q-1 54 -8 85q-8 34 -35 94q-46 103 -46 153q0 122 153 122t153 -123q0 -50 -46 -152q-30 -68 -38 -106q-5 -27 -6 -73q61 14 115 46q78 47 125 47q58 0 92 -52q31 -46 31 -104q0 -70 -43 -116q-36 -38 -84 -38q-32 0 -54 12l-86 48q-30 16 -95 34q3 -93 30 -161 q30 -73 95 -150q-65 -77 -95 -149q-27 -68 -30 -161q47 13 73 24q12 5 108 59q22 12 54 12q57 0 94 -50q33 -44 33 -104q0 -70 -41 -119q-32 -38 -83 -38q-46 0 -124 47q-54 32 -115 46q2 -54 9 -86q8 -33 35 -93q46 -104 46 -154q0 -122 -153 -122t-153 123q0 51 46 153 q30 67 38 106q5 26 5 73q-60 -14 -114 -46q-78 -47 -124 -47q-59 0 -93 52q-31 46 -31 105z" />
<glyph unicode="&#x2022;" horiz-adv-x="1365" vert-adv-y="2458" d="M401 693q0 120 84 202q86 82 204 82q113 0 196 -83q84 -83 84 -201t-83 -201t-201 -83q-116 0 -199 82q-85 84 -85 202z" />
<glyph unicode="&#x2026;" horiz-adv-x="1470" vert-adv-y="2458" d="M79 149q0 71 55 122q47 43 114 43q71 0 121 -55q43 -48 43 -111q0 -74 -55 -124q-48 -43 -112 -43q-73 0 -123 55q-43 48 -43 113zM569 149q0 71 55 122q47 43 114 43q71 0 121 -55q43 -48 43 -111q0 -74 -55 -124q-48 -43 -112 -43q-73 0 -123 55q-43 48 -43 113z M1059 149q0 71 55 122q47 43 114 43q71 0 121 -55q43 -48 43 -111q0 -74 -55 -124q-48 -43 -112 -43q-73 0 -123 55q-43 48 -43 113z" />
<glyph unicode="&#x202f;" horiz-adv-x="371" vert-adv-y="0" />
<glyph unicode="&#x2030;" horiz-adv-x="2368" vert-adv-y="2458" d="M76 939q0 164 118 254q82 62 214 62q148 0 240 -91q89 -87 89 -226q0 -104 -62 -190q-83 -116 -267 -116q-153 0 -238 76q-94 85 -94 231zM252 83l1013 1157l94 -83l-1017 -1157zM307 923q0 -187 100 -187q99 0 99 203q0 74 -10 121q-18 83 -87 83q-102 0 -102 -220z M868 292q0 164 118 254q82 62 214 62q148 0 240 -91q89 -87 89 -226q0 -103 -62 -189q-84 -116 -267 -116q-153 0 -238 76q-94 85 -94 230zM1100 275q0 -187 100 -187q99 0 99 204q0 75 -10 121q-18 83 -87 83q-102 0 -102 -221zM1631 292q0 164 118 254q82 62 214 62 q148 0 240 -91q89 -87 89 -226q0 -103 -62 -189q-84 -116 -267 -116q-153 0 -238 76q-94 85 -94 230zM1863 275q0 -187 100 -187q99 0 99 204q0 75 -10 121q-19 83 -87 83q-102 0 -102 -221z" />
<glyph unicode="&#x2039;" horiz-adv-x="463" vert-adv-y="2458" d="M91 478q0 88 61 193q20 35 66 98h158q-79 -168 -79 -303t79 -293h-158q-127 173 -127 305z" />
<glyph unicode="&#x203a;" horiz-adv-x="464" vert-adv-y="2458" d="M85 173q80 168 80 303q0 136 -80 293h159q127 -174 127 -304q0 -119 -127 -292h-159z" />
<glyph unicode="&#x205f;" horiz-adv-x="464" vert-adv-y="0" />
<glyph unicode="&#x20ac;" horiz-adv-x="1283" vert-adv-y="2458" d="M0 447l57 137h66q-1 19 -1 38t2 58h-124l57 137h83q29 166 110 279q148 205 397 205q127 0 199 -54q34 -26 77 -88l30 112h208v-429h-208q-2 113 -37 176q-47 88 -142 88q-151 0 -190 -289h326l-58 -137h-278q-1 -41 -1 -43q0 -12 1 -53h239l-57 -137h-173 q10 -81 28 -137q55 -168 161 -168q133 0 140 233h208q1 -171 -87 -283q-114 -145 -353 -145q-167 0 -278 66q-172 102 -238 320q-16 52 -27 114h-137z" />
<glyph unicode="&#x2122;" horiz-adv-x="2163" vert-adv-y="2458" d="M-14 1053v312h863v-312h-150v7l1 27q0 161 -135 161h-19v-443q2 -79 9 -89q9 -11 49 -11h78v-118h-536v118h77q44 0 52 15q5 9 7 86v441q-103 -2 -136 -81q-16 -40 -16 -113h-144zM869 587v118h78q42 0 51 15q6 9 7 86v340q0 78 -9 90q-9 11 -49 11h-78v118h502l127 -446 l129 446h501v-118h-77q-43 0 -52 -15q-5 -9 -7 -86v-340q2 -80 9 -90q9 -11 50 -11h77v-118h-503v118h50q43 0 51 15q5 9 7 86v382l-181 -601h-207l-184 602v-383q2 -80 9 -90q9 -11 50 -11h50v-118h-401z" />
<glyph unicode="&#x2206;" horiz-adv-x="1365" vert-adv-y="2458" d="M27 0l517 1338h266l528 -1338h-1311zM323 183h713l-358 938z" />
<glyph unicode="&#x2211;" horiz-adv-x="1365" vert-adv-y="2458" d="M69 -293l513 852l-513 762v215h1171v-504h-187l-28 316h-710l527 -793l-531 -879h741l16 319h192v-507h-1191v219z" />
<glyph unicode="&#x221a;" horiz-adv-x="1366" vert-adv-y="2458" d="M5 593v161h309l66 -157q49 -117 68 -225h10q28 121 68 220l415 1045h427v-161h-299l-619 -1509l-256 626h-189z" />
<glyph unicode="&#x2264;" horiz-adv-x="1025" vert-adv-y="2458" d="M14 3v216h997v-216h-997zM14 711v223l997 396v-220l-734 -286l734 -314v-220z" />
<glyph unicode="&#x2265;" horiz-adv-x="1025" vert-adv-y="2458" d="M14 3v216h997v-216h-997zM14 290v220l734 314l-734 286v220l997 -393v-223z" />
<glyph unicode="&#x25ca;" horiz-adv-x="1365" vert-adv-y="2458" d="M192 683l491 675l490 -675l-490 -676zM320 683l363 -499l362 499l-362 498z" />
<glyph unicode="&#xe000;" horiz-adv-x="935" vert-adv-y="1870" d="M0 0v935h935v-935h-935z" />
</font>
</defs>
</svg>
